/* XPM */
static char * undo_cap_up_xpm[] = {
"32 32 100 2",
"  	c Gray75 s backgroundToolBarColor",
". 	c #1AB000",
"+ 	c #16A900",
"@ 	c #06A500",
"# 	c #41BC3B",
"$ 	c #049600",
"% 	c #009E00",
"& 	c #4CC34C",
"* 	c #D2FFD2",
"= 	c #80DB80",
"- 	c #009000",
"; 	c #009900",
"> 	c #3EC03E",
", 	c #ACFFAC",
"' 	c #69D969",
") 	c #008A00",
"! 	c #009400",
"~ 	c #30BD30",
"{ 	c #86FF86",
"] 	c #51D751",
"^ 	c #008600",
"/ 	c #008F00",
"( 	c #21B921",
"_ 	c #61FF61",
": 	c #3AD53A",
"< 	c #008100",
"[ 	c #13B613",
"} 	c #3BFF3B",
"| 	c #22D322",
"1 	c #007D00",
"2 	c #008400",
"3 	c #05B305",
"4 	c #15FF15",
"5 	c #0AD10A",
"6 	c #007800",
"7 	c #007F00",
"8 	c #00AE00",
"9 	c #00FC00",
"0 	c #00CD00",
"a 	c #007400",
"b 	c #007A00",
"c 	c #00D600",
"d 	c #00F400",
"e 	c #00A000",
"f 	c #007300",
"g 	c #00B100",
"h 	c #00ED00",
"i 	c #00C000",
"j 	c #007500",
"k 	c #005C00",
"l 	c #006A00",
"m 	c #009500",
"n 	c #00E600",
"o 	c #006E00",
"p 	c #007000",
"q 	c #006D00",
"r 	c #006B00",
"s 	c #00D700",
"t 	c #00DE00",
"u 	c #008000",
"v 	c #006900",
"w 	c #006600",
"x 	c #00D000",
"y 	c #007B00",
"z 	c #005E00",
"A 	c #006400",
"B 	c #005500",
"C 	c #005B00",
"D 	c #006700",
"E 	c #00C200",
"F 	c #00A600",
"G 	c #006000",
"H 	c #005D00",
"I 	c #009100",
"J 	c #005600",
"K 	c #005A00",
"L 	c #00C800",
"M 	c #00AD00",
"N 	c #009200",
"O 	c #007700",
"P 	c #009800",
"Q 	c #00BB00",
"R 	c #006F00",
"S 	c #00B500",
"T 	c #00C100",
"U 	c #007C00",
"V 	c #004D00",
"W 	c #005800",
"X 	c #006100",
"Y 	c #00BA00",
"Z 	c #008B00",
"` 	c #005900",
" .	c #003800",
"..	c #005100",
"+.	c #009D00",
"@.	c #008800",
"#.	c #004700",
"$.	c #004A00",
"%.	c #005000",
"&.	c #003E00",
"                                                                ",
"                                                                ",
"                                                                ",
"                                                                ",
"                                                                ",
"                                                                ",
"                  . +                                           ",
"                @ # @ $                                         ",
"              % & * = % -                                       ",
"            ; > , , , ' ; )                                     ",
"          ! ~ { { { { { ] ! ^                                   ",
"        / ( _ _ _ _ _ _ _ : / <                                 ",
"      ) [ } } } } } } } } } | ) 1                               ",
"    2 3 4 4 4 4 4 4 4 4 4 4 4 5 2 6                             ",
"  7 8 9 9 9 9 9 9 9 9 9 9 9 9 9 0 7 a                           ",
"b b b b b b b c d d d d e b b b b b b                           ",
"            f g h h h h i j k                                 j ",
"            l m n n n n n ^ o                             o p q ",
"              r s t t t t s u v                         l r r   ",
"              w % s s s s s x y w z                 A w w w B   ",
"              C D E x x x x x x F o G z H C z z G G j I D J     ",
"                K p E L L L L L L L M N 2 O O N P Q e k J       ",
"                  K R S T T T T T T T T T T T T Q U C V         ",
"                    W X I Y Y Y Y Y Y Y Y Y 8 Z X `  .          ",
"                      ..C X 1 N +.+.+.+.@.O C ` #.              ",
"                          $.J C C C C C ` %.&.                  ",
"                                                                ",
"                                                                ",
"                                                                ",
"                                                                ",
"                                                                ",
"                                                                "};
