/* XPM */
static char *TBacroread[]={
"32 32 195 2",
".a c Gray75 s backgroundToolBarColor",
".h c #000000",
"b. c #171717",
"ba c #20180f",
"aH c #262626",
"#v c #292929",
"a6 c #2a120b",
"b# c #2b2723",
"a9 c #2c2824",
".2 c #332f2c",
".M c #333333",
".d c #383838",
".b c #464646",
"#t c #515151",
"aL c #520f08",
"aj c #552725",
"## c #5d5d5d",
"aD c #601617",
".F c #614c4e",
"aF c #615251",
".e c #626262",
"aX c #64554e",
"#8 c #69191b",
"#I c #6b6b6b",
".n c #706f71",
"aM c #727b78",
"#A c #74130a",
"#d c #74494b",
".i c #757575",
"#9 c #762221",
"#o c #776260",
"aq c #7a2927",
"aV c #7a6c64",
".S c #7c7b7c",
".R c #815b58",
".m c #828383",
"#R c #843739",
".H c #855c56",
"aS c #89595b",
".l c #8b8c8c",
"#c c #8f3231",
"aZ c #901813",
"aJ c #912727",
"ae c #913c38",
".0 c #927b7a",
"#L c #934947",
".7 c #938687",
"#0 c #945555",
".B c #946c67",
"a2 c #959595",
"#j c #974b4b",
"ak c #987b56",
"a4 c #990000",
".T c #999898",
"aK c #9a2a29",
"a5 c #9a423f",
"ar c #9b6766",
"#x c #9b8e8d",
"#7 c #9c0b06",
"aQ c #9e514f",
"aW c #a0130c",
"#l c #a14f52",
"#6 c #a21113",
"#. c #a2a3a3",
"aN c #a39e97",
"ad c #a43433",
".3 c #a5a9a9",
"af c #a67875",
"a3 c #a73c2f",
"#B c #a99391",
"a. c #ab4536",
".o c #ac9e9d",
"#h c #acacad",
"#r c #ad494f",
"aR c #ae3533",
"aE c #aeb6b7",
"aU c #af433e",
".6 c #af4747",
".Q c #b04d4d",
".I c #b3b8b7",
"#Q c #b42a26",
"ap c #b43937",
".P c #b45051",
"#k c #b46b6d",
".L c #b4b4b4",
"as c #b7a6a7",
".Z c #b84545",
".W c #bbbbbb",
"a1 c #bc4134",
"#s c #bc9998",
"aC c #bd5754",
"#Z c #c14e4e",
"ag c #c18a83",
".z c #c25e5a",
"ai c #c40912",
"ax c #c43a32",
".A c #c46f67",
".K c #c4c4c4",
".C c #c7cccd",
"#E c #c8c8c6",
"at c #c9b7b9",
"#q c #ca4e4e",
".G c #ca5251",
"aO c #cac4c2",
"#5 c #cb2d31",
"aA c #cb9a9b",
".V c #cccccb",
"   c Gray75 s backgroundToolBarColor",
"#C c #ccd1d1",
"#m c #cdaeb4",
".k c #cdc7c8",
"av c #ce3437",
"#D c #cebcb9",
"#G c #cee0e4",
".1 c #cfcfd0",
"a8 c #cfdada",
"az c #d0d0cd",
"aG c #d27c58",
"#e c #d2bebe",
"ac c #d3656a",
".J c #d3d3d3",
".x c #d5c5c1",
"#f c #d6d9d3",
"#a c #d6d9d9",
"#S c #d7625f",
"aI c #d76d6f",
"#F c #d8b9b4",
"#H c #d9d6d5",
"#z c #da5d5d",
"am c #da9790",
"a0 c #da9a7c",
"a7 c #daaead",
"aY c #db7652",
".s c #dbdbdb",
"aw c #dc2227",
"a# c #de545a",
".4 c #dfc9c8",
"#O c #dffefe",
"#i c #e07675",
"#u c #e0e0df",
"#P c #e13b38",
"au c #e15f67",
".j c #e3e3e2",
".U c #e3ebea",
"ah c #e46165",
".E c #e46961",
".c c #e5e8e5",
"#K c #e68d85",
"#y c #e6cacd",
"aP c #e7514f",
"ay c #e84135",
"#W c #e8a89d",
"#M c #e8e1de",
"aa c #e9d8bf",
"#4 c #ea3e3e",
".O c #ea7b7c",
".g c #eaeaea",
".9 c #eaf1f0",
"#X c #ebdbc4",
".t c #ebe5e4",
"#3 c #ee544e",
"#1 c #eec0bb",
"al c #ef8e6d",
"#N c #effcfc",
"#Y c #f1dedd",
"#T c #f22d2c",
"#2 c #f2a9a4",
".X c #f2bcba",
"#p c #f3bec0",
"#J c #f3eeeb",
".f c #f3f4f3",
".8 c #f3f8f8",
".p c #f4e4e4",
".N c #f4faf6",
"#U c #f54633",
".Y c #f54e4c",
"#V c #f77355",
".y c #f7908e",
".w c #f7988a",
"#g c #f7e1d6",
"ab c #f96467",
"ao c #fa7b7c",
".r c #faf8f7",
"aB c #fb8782",
"aT c #fbbaa6",
".D c #fdedeb",
"an c #febcb6",
"#w c #fec4c1",
".q c #feebe7",
".# c #fefefe",
".v c #ff7578",
"#b c #ff807e",
".5 c #ff8f8f",
".u c #ffcec8",							 
"#n c #fff7e4",			                	           
"                                                                ",
"                                      .m.b.b                    ",
"                                  .m.b.b.c.d                    ",
"                              .m.e.e.f.#.#.g.h                  ",
"                          .m.m.i.j.#.#.#.#.#.d.k                ",
"                      .m.m.o.p.q.r.#.#.#.#.#.s.h                ",
"                  .m.m.m.t.u.v.w.x.g.r.#.#.#.#.d                ",
"              .m.m.m.s.#.q.y.z.A.B.C.s.j.t.f.#.j.h              ",
"            .m.m.s.#.#.#.D.E.F.G.H.I.J.K.L.g.f.r.M              ",
"        .m.m.s.#.#.#.#.#.N.O.P.Q.R.f.#.S.T.g.s.U.J.h            ",
"    .m.m.V.#.#.#.#.#.#.s.W.X.Y.Z.0.f.c.J.f.J.m.1.g.2            ",
".m.m.V.#.#.#.#.#.#.r.#.f.3.4.5.6.7.8.9.g.j#.##.W#a.1.h          ",
".i.K.#.#.#.#.#.#.c.V.g.g.9.s#b#c#d#e.g.g.c.K.J.c.s.g.M          ",
"  .i.#.#.#.#.#.#.J#h.i.W.8.D#i#j#k#l#m.N.c.s.W#..L.j.K.h        ",
"  .i.K.#.#.#.#.#.#.#.s.s.f.q.G#o#p#q#r#s.9.j#.#t#h.s#u#v        ",
"    .n.#.#.#.#.#.f.K.f.#.##w.Z#x.g#y#z#A#B#C#D#E#F#G#H.V.h      ",
"    #I.K.#.#.#.#.r.m.W.j#J#K#L#M#N#O.5#P#Q#R#S#T#U#V#W.s#v      ",
"      #I.#.#.#.#.#.c.J.8#Y#Z#0#1#2#3#4#5#T#6#7#8#9a.a#.J#E.h    ",
"      #I.K.#.#.#.r.9.8.8.Xabac.G#5adaeafagahai#8ajakalam.J#v    ",
"        #I.#.#.#.J.3.Wanaoapaqar.7as.U.C.Uatauavawaxay.Aaz.W.h  ",
"        #I.V.#.N.#aAaBaCaDar#e#E.j.s#E.V.KaE.naFaG#S#s.L.V.saH  ",
"          #t.r.r.qaIaJaKaLat.j.s#faz.V.V#E.1.3aMaNaO.V.V.V.1.L.h",
"          #t#E#gaPaJaQaRaS.U#uazazaz#E.W#..L.J.C.K.1az.1.K.L#v.h",
"            #taTaUaVaCaWaF.U.s.V.1.V#E.W#I.b.L.V.V.V.V.L#v.h    ",
"            aXaYaZa0a1aj#I#E.L.L.Ja2#h.V.3.l.3.J.V.L#v.h        ",
"              a3a1a4a5.SaM#u.i.T.Va2#I.C.1.K.V.LaH.h            ",
"              a6.wa7a8#C.gaz.S#..K.C.m.K.V.La9.h                ",
"                .h.j#u.s.s.s#E.J.l.L.V.Wa9.h                    ",
"                .h.1.s.s.s.J#a.J.1.W#v.h                        ",
"                  b..s.s.s.s.J.K#v.h                            ",
"                  .h.V.s.J.K#v.h                                ",
"                    #v.K#v.h                                    ",
"                    .h.h                                        "};


