/* XPM */
static char * news_cap_up_xpm[] = {
"32 32 256 2",
"  	c Gray75 s backgroundToolBarColor",
". 	c #020204",
"+ 	c #82822E",
"@ 	c #C6C247",
"# 	c #E6E2A4",
"$ 	c #D6827C",
"% 	c #EEC2C0",
"& 	c #A6A22F",
"* 	c #C6C29C",
"= 	c #C6D2C4",
"- 	c #EE423C",
"; 	c #A6A698",
"> 	c #424214",
", 	c #A68A84",
"' 	c #F6F2B4",
") 	c #CEC6A8",
"! 	c #C6BA44",
"~ 	c #969225",
"{ 	c #B6B237",
"] 	c #DED69C",
"^ 	c #6A6620",
"/ 	c #D5DAD8",
"( 	c #EEA694",
"_ 	c #B6B28C",
": 	c #EEE6AC",
"< 	c #26261C",
"[ 	c #C1CAC3",
"} 	c #EED4CC",
"| 	c #828684",
"1 	c #CED2D2",
"2 	c #CCCAC9",
"3 	c #F6F2DE",
"4 	c #BEBA8C",
"5 	c #AEAA6C",
"6 	c #CECE3C",
"7 	c #969284",
"8 	c #DEDA9C",
"9 	c #72721C",
"0 	c #8A6244",
"a 	c #C6AAA4",
"b 	c #EEEAAF",
"c 	c #D8D2D2",
"d 	c #AEAA2F",
"e 	c #BDC2BE",
"f 	c #D2CAC4",
"g 	c #9E9C29",
"h 	c #FEFAE6",
"i 	c #BE7E74",
"j 	c #1A1511",
"k 	c #E68478",
"l 	c #BEBA36",
"m 	c #DEDBC8",
"n 	c #C6BE8C",
"o 	c #C4C2C0",
"p 	c #8A8A2E",
"q 	c #CAC674",
"r 	c #6A4634",
"s 	c #B5BAB6",
"t 	c #EEEBDB",
"u 	c #E6B2AC",
"v 	c #C4C6C1",
"w 	c #969536",
"x 	c #827D21",
"y 	c #E69A8C",
"z 	c #BCBABF",
"A 	c #F6C2C0",
"B 	c #5A5717",
"C 	c #62655F",
"D 	c #D2D4D3",
"E 	c #CCCEC9",
"F 	c #72726C",
"G 	c #DEDBD7",
"H 	c #DEBAB4",
"I 	c #120A0C",
"J 	c #DAE2D4",
"K 	c #AEA64C",
"L 	c #BEB65C",
"M 	c #B6B4A4",
"N 	c #323214",
"O 	c #9E8488",
"P 	c #DAD2DC",
"Q 	c #B2AA4C",
"R 	c #C2B8BC",
"S 	c #CECA3C",
"T 	c #AEA230",
"U 	c #A69E2C",
"V 	c #DADBD8",
"W 	c #F6F3ED",
"X 	c #FEFDF9",
"Y 	c #FEEEDC",
"Z 	c #A67660",
"` 	c #0A0D11",
" .	c #828654",
"..	c #CEC244",
"+.	c #AEAB89",
"@.	c #5A4A44",
"#.	c #B6B24C",
"$.	c #C6CBC8",
"%.	c #CCD6D4",
"&.	c #7A7C22",
"*.	c #B6AE37",
"=.	c #D2CAD4",
"-.	c #E68E8C",
";.	c #968E26",
">.	c #EEECE8",
",.	c #BDBEBB",
"'.	c #C3BEBD",
").	c #8A822C",
"!.	c #4A4E1C",
"~.	c #B68E8C",
"{.	c #FEFACC",
"].	c #CAC2C4",
"^.	c #9E9428",
"/.	c #F6A599",
"(.	c #EEE6E1",
"_.	c #CECE84",
":.	c #221A14",
"<.	c #BEBB61",
"[.	c #E6DEC9",
"}.	c #C4C2CC",
"|.	c #CECA74",
"1.	c #E6BDB9",
"2.	c #C5C6CC",
"3.	c #FECEC4",
"4.	c #6A6A4C",
"5.	c #E6E3D2",
"6.	c #B7B6B9",
"7.	c #0A060C",
"8.	c #F6F3CB",
"9.	c #DE665C",
"0.	c #E67E7C",
"a.	c #6A5A5C",
"b.	c #EE5254",
"c.	c #523A34",
"d.	c #827274",
"e.	c #CE8E74",
"f.	c #3A221C",
"g.	c #D6A8AC",
"h.	c #423E1C",
"i.	c #826C70",
"j.	c #FEAEAC",
"k.	c #525654",
"l.	c #F6DCD8",
"m.	c #322E2C",
"n.	c #E6CBBF",
"o.	c #968E87",
"p.	c #DEB2AC",
"q.	c #4A4644",
"r.	c #E2D2D4",
"s.	c #7A7A4C",
"t.	c #F6928C",
"u.	c #E6AEB4",
"v.	c #D6D2AC",
"w.	c #423234",
"x.	c #624E4C",
"y.	c #AE7E74",
"z.	c #F68684",
"A.	c #F68A7C",
"B.	c #FEE4D8",
"C.	c #F6BAB0",
"D.	c #7A564C",
"E.	c #9E9A94",
"F.	c #7A7644",
"G.	c #F67A74",
"H.	c #DE8A84",
"I.	c #6E6E24",
"J.	c #8A8E7C",
"K.	c #BE928C",
"L.	c #C6BE64",
"M.	c #EE6664",
"N.	c #F69A94",
"O.	c #EE5A54",
"P.	c #B6B69C",
"Q.	c #DEDAAC",
"R.	c #EEEAC4",
"S.	c #C6C28C",
"T.	c #B6B274",
"U.	c #C6928C",
"V.	c #AEACA4",
"W.	c #AEA29C",
"X.	c #4A4614",
"Y.	c #AE8674",
"Z.	c #7A7628",
"`.	c #9E963C",
" +	c #FEC5C1",
".+	c #FEA6A4",
"++	c #E6E2BC",
"@+	c #9E9A38",
"#+	c #827A34",
"$+	c #E6E3DE",
"%+	c #D6D4C4",
"&+	c #323234",
"*+	c #6A6A67",
"=+	c #BEB238",
"-+	c #BEB684",
";+	c #8A8983",
">+	c #B6AE74",
",+	c #D6CF43",
"'+	c #9E968C",
")+	c #E6DE9F",
"!+	c #CEA6AC",
"~+	c #F6EEB4",
"{+	c #221410",
"]+	c #EE827C",
"^+	c #F6EEDC",
"/+	c #6A6664",
"(+	c #7A7674",
"_+	c #1A0E04",
":+	c #FEF5EC",
"<+	c #F6EEEC",
"[+	c #BE8C90",
"}+	c #D6D27C",
"|+	c #FEF6CC",
"1+	c #E6D6CC",
"2+	c #E6DEB4",
"3+	c #CEC684",
"4+	c #EEB6AC",
"5+	c #BEB64C",
"6+	c #F6EEC4",
"7+	c #828624",
"8+	c #C6C64C",
"9+	c #C6C6AC",
"0+	c #C6BE41",
"a+	c #969620",
"b+	c #AEAE2C",
"c+	c #FEFEE9",
"d+	c #BEBE44",
"e+	c #8A8E24",
"f+	c #F6C6CC",
"g+	c #AEA631",
"h+	c #CEC641",
"i+	c #8A8627",
"j+	c #D8D6D4",
"k+	c #BEC6C4",
"l+	c #D5CEC6",
"m+	c #B6BEBC",
"n+	c #D7D6DD",
"o+	c #D4CED6",
"p+	c #CCC6C9",
"q+	c #DED6D0",
"r+	c #BEBAA4",
"s+	c #A69E44",
"t+	c #4A4E34",
"u+	c #CECA8C",
"v+	c #EE9A94",
"w+	c #EE8E84",
"x+	c #F6E6E4",
"y+	c #BEB6B4",
"z+	c #8A726C",
"A+	c #02060C",
"B+	c #E6E6AC",
"C+	c #A6A62C",
"D+	c #B6B63C",
"E+	c #F6F6DC",
"F+	c #AEAE74",
"G+	c #96968C",
"7.. z s ,.6.z m+'.,.,.. 7.. 7.. 7.v [ ].'.v }.[ [ $.7.. $.2.7.. ",
". ^ . . 6.6.z ,.'.z . 7.. . . . . A+2.e '.o o $.. . m . o A+; . ",
". & g I.7.. s e z . {+. 7.. 7.. . _+7.e }.e }.. _ t E./+. W (.. ",
". g d *.~ Z.. r+z . . . . . . . A+. . 2.[ ].. ,.9+/+G+G X X h . ",
"7.x ~ a+b+d ;.. . . K.. 7.. j ~.u.~.{+. 7.. r+;+o.t X X 3.C.X . ",
". &.w p x d C+U !.. a i.7.` i.% 3.!+< F.C | '+V X f+} t.p.j.c+. ",
"7.B =+d ;.x U g+C+N O A [+[+4+1.!+c.;+(+r+<+X X B.- w+O.3. +X . ",
",.. & d d g+7+;.d ;.h.3.4+!+x.x.J.V.v X X x+/.N.y b.v+.+h X C . ",
"z . p d C+T C+i+).C+9 @./+W.R c W X :+n.z.-.0.G.0.( (.h X X 7.1 ",
"o . I.d e+&.g d g U C+h X X Y h A  +9.H.9.]+k l.<+X X $+; 1 . p+",
"s s . U *.+ ~ U d d g+5.X /.} u $ 0.M.u u.N. +X X (.'.*+m.M . D ",
"z ,.. Z.C+i+~ g Z.a+g _.c+k l.G A.% n.c+c+X <+1 ; q.C E %+G . 1 ",
"z ,.'.. ^.&.g U i+i+g *.6+C.4+B.:+h X X X $+(+;+a.;+l+:+c+(+. E ",
"z e . < h.;.p ~ Z.;.+ d q :+:+X c+X X c+X G F P.1 m M W W /+. =.",
",.. z+y.:.B a+~ &.+ Z.d *.3 X X X c+X X X h ^+o 7 ;+V.l+'+j j D ",
"'.. , y.r B i+g ~ a+p b+C+R.c+X X X c+X X G ;+| 6.W c k.Z [+0 . ",
"e . O n.w.X.Z.;.& T d T d Q.X X X X X c+X ^+[.h c+6+;+c.a.y.1.. ",
"[ . @.i f.h.Z.7+g d ~ b+d 3+X X c+X c+X c+h E+8.)+}+Z.x.i.U.H . ",
"e o . ^ x ;.x x d g ).;.{ |.c+h c+8.|+|+|+~+b )+] <.`.m.D.e.Z . ",
"o '.. l S 8+C+~ b+d p ;.C+d+h {.8.' : b B+# 8 T.5 F+T  .t+` . j+",
"o o 7...@ 5+5+5+@ & ;.e+{ 0+c+8.~+8 ] u+3+>+}+<.4 -+T._ n . c D ",
"z A+a+6 S D+b+<.5+L.Q g+l h+h ' v.+.F++.F+S.b ; P.j+5.(.t . V D ",
"v . =+& h+6 @ Q 5+<.L.<.,+@ c+8.2+n * n ) v.c+t q+2 %+j+c+;+. G ",
". Z.@ U w b+6 S l D+#.h+S S h E+$+r+P.P.P.m c+o %+3 5.^+h (.. q+",
". 9 ! L `.w S l 6 h+@ d+,+h+X c+5.l+m j+++^+X E+q+%+j+l+h X *+. ",
"p+A+. ~ l & @ ~ & @ 6 6 h+|.X X t o E v 2 G c+%+%+3 W W W W '+. ",
"v '.v . ^ { ,+d w w { h+h+++X X (.) [.m 5.5.X h G y+7.. 7.. 7.J ",
"$.$.p+v . . w ,+d+U p 0+8+E+X X >.$+(.>.>.A+. . . A+1 V c / o+P ",
"[ 2 $.p+2.[ 7.^ ..0+d h+)+X X h X M 7.. . D 1 D j+n+/ n+c / / n+",
"2 v 2 2 $.p+2 . . D+,+}+W c+J.A+. . 1 1 j+c o+o+j+D G 1 / V G / ",
"= '.E $.2 p+2 $.1 . ;.F.. . . 1 D D j+/ / q+j+/ V n+/ P V G G V ",
"2 1 2 f $.E 1 =.2 E . . %.o+D E =.1 1 1 1 D c V l+/ n+r.V n+/ V "};
