/* XPM */
static char * replace_cap_up_xpm[] = {
"32 32 479 2",
"  	c Gray75 s backgroundToolBarColor",
". 	c #BAC6DB",
"+ 	c #93A0B7",
"@ 	c #F1F6FF",
"# 	c #FFFFFF",
"$ 	c #FEFFFF",
"% 	c #F9FDFF",
"& 	c #F4F7FE",
"* 	c #EBF0F9",
"= 	c #E3E9F4",
"- 	c #DAE1EF",
"; 	c #CED7E8",
"> 	c #B8C6DF",
", 	c #A2ADC0",
"' 	c #F2F7FF",
") 	c #F5F9FF",
"! 	c #EEF3FC",
"~ 	c #E8EDF7",
"{ 	c #E0E7F3",
"] 	c #D7DFED",
"^ 	c #CBD5E6",
"/ 	c #B5C2D9",
"( 	c #E1EAF9",
"_ 	c #9CA8BC",
": 	c #FBFEFF",
"< 	c #F6FAFF",
"[ 	c #F1F5FE",
"} 	c #E3EAF4",
"| 	c #DCE3F0",
"1 	c #CFD8E8",
"2 	c #B8C4DB",
"3 	c #E6ECF7",
"4 	c #D2DDEF",
"5 	c #9CA8BE",
"6 	c #FCFFFF",
"7 	c #F8FBFF",
"8 	c #F4F8FE",
"9 	c #EEF2FB",
"0 	c #E7EDF7",
"a 	c #DFE5F2",
"b 	c #D2DBEA",
"c 	c #BAC6DC",
"d 	c #F5F8FF",
"e 	c #DEE4F1",
"f 	c #D1DBEF",
"g 	c #9DA9BF",
"h 	c #B1D2BF",
"i 	c #C5E4C7",
"j 	c #E4F2E5",
"k 	c #F8FBF8",
"l 	c #EEF7EF",
"m 	c #BBDFBD",
"n 	c #A0D4A3",
"o 	c #D5EBD6",
"p 	c #FDFFFF",
"q 	c #F9FCFF",
"r 	c #F0F4FD",
"s 	c #E9EFF8",
"t 	c #E1E7F3",
"u 	c #D5DDEC",
"v 	c #BCC7DB",
"w 	c #F3F7FE",
"x 	c #E2E8F3",
"y 	c #D4DFF1",
"z 	c #9FABC0",
"A 	c #CDE8CE",
"B 	c #F5FAF5",
"C 	c #FCFEFC",
"D 	c #FDFEFD",
"E 	c #F6FAF6",
"F 	c #FEFEFE",
"G 	c #F8FCF8",
"H 	c #CFE8D0",
"I 	c #A7D5AA",
"J 	c #DEEEE3",
"K 	c #F7FAFF",
"L 	c #F2F5FD",
"M 	c #EBEFF9",
"N 	c #D9E1EF",
"O 	c #B4C1D7",
"P 	c #E9EBF1",
"Q 	c #E2E8EF",
"R 	c #DAE1ED",
"S 	c #CED7E6",
"T 	c #C6D2E7",
"U 	c #97A4BB",
"V 	c #C6E5C8",
"W 	c #FEFFFE",
"X 	c #E7F3E8",
"Y 	c #E9F4E9",
"Z 	c #FCFDFC",
"` 	c #B5DCB7",
" .	c #BFDFC6",
"..	c #F0F4FB",
"+.	c #EDF1FB",
"@.	c #E6ECF6",
"#.	c #DEE5F2",
"$.	c #BECADD",
"%.	c #8E9FBB",
"&.	c #D6ECD7",
"*.	c #F7FBF8",
"=.	c #F3F9F3",
"-.	c #E9F4EA",
";.	c #E2F0E3",
">.	c #DAECDB",
",.	c #D4E9D5",
"'.	c #D3E9D4",
").	c #DBEDDC",
"!.	c #FBFDFB",
"~.	c #BEE0C0",
"{.	c #BEDAC8",
"].	c #EBEFF8",
"^.	c #E7ECF7",
"/.	c #E1E7F4",
"(.	c #DBE3F0",
"_.	c #CDD6E7",
":.	c #B7C4DA",
"<.	c #ACBAD3",
"[.	c #AAB9D2",
"}.	c #A4B4D1",
"|.	c #7A8BA7",
"1.	c #D7ECD7",
"2.	c #DEEFDF",
"3.	c #BBDDBD",
"4.	c #B9DCBB",
"5.	c #B0D8B2",
"6.	c #B7DBB9",
"7.	c #BCDDBD",
"8.	c #BEDFC0",
"9.	c #BFDFC1",
"0.	c #BDDEBF",
"a.	c #C5E2C7",
"b.	c #F6FBF7",
"c.	c #A5D2A8",
"d.	c #D8E2E5",
"e.	c #E7EDF6",
"f.	c #E2E9F4",
"g.	c #C2CCE0",
"h.	c #B4C0D8",
"i.	c #AAB7CC",
"j.	c #B6C2D9",
"k.	c #ABBBD6",
"l.	c #70BA74",
"m.	c #74B977",
"n.	c #87C38B",
"o.	c #93C996",
"p.	c #9BCD9E",
"q.	c #A1D0A4",
"r.	c #A7D3AA",
"s.	c #A8D4AA",
"t.	c #A5D2A7",
"u.	c #9ECFA1",
"v.	c #ADD6AF",
"w.	c #F3F9F4",
"x.	c #F3F8F3",
"y.	c #9EC8A5",
"z.	c #E1E7F0",
"A.	c #E5EBF6",
"B.	c #DDE4F1",
"C.	c #CBD5E5",
"D.	c #BDC9DE",
"E.	c #BBC7DC",
"F.	c #9EA9BA",
"G.	c #CDD6E5",
"H.	c #B3C1DB",
"I.	c #209226",
"J.	c #6AB56E",
"K.	c #74B978",
"L.	c #7EBE81",
"M.	c #84C187",
"N.	c #8AC58D",
"O.	c #8EC791",
"P.	c #90C893",
"Q.	c #90C793",
"R.	c #8FC792",
"S.	c #8EC691",
"T.	c #95CA97",
"U.	c #EBF5EC",
"V.	c #AED3B1",
"W.	c #D5D9E2",
"X.	c #DDE4F0",
"Y.	c #D0D8E8",
"Z.	c #C6D0E3",
"`.	c #C2CDE0",
" +	c #BFCADF",
".+	c #B6BECD",
"++	c #D0D8E6",
"@+	c #B9C6DE",
"#+	c #279B2C",
"$+	c #1E8E24",
"%+	c #48A34D",
"&+	c #60B065",
"*+	c #6AB46E",
"=+	c #70B774",
"-+	c #75B978",
";+	c #78BC7C",
">+	c #7ABC7E",
",+	c #79BB7D",
"'+	c #77BA7A",
")+	c #8CC48F",
"!+	c #E8F2E8",
"~+	c #FDFDFD",
"{+	c #FCFCFC",
"]+	c #D2E7D2",
"^+	c #B9BEC9",
"/+	c #CBD4E4",
"(+	c #CCD6E7",
"_+	c #C9D3E4",
":+	c #C6D1E3",
"<+	c #C4CFE2",
"[+	c #C1CDE0",
"}+	c #BECBE2",
"|+	c #229428",
"1+	c #1E8E23",
"2+	c #25912B",
"3+	c #45A14A",
"4+	c #5AAC5F",
"5+	c #5DAD61",
"6+	c #61AF65",
"7+	c #63B066",
"8+	c #81BF84",
"9+	c #8CC48E",
"0+	c #65B168",
"a+	c #7EBD81",
"b+	c #E6F1E7",
"c+	c #FBFBFB",
"d+	c #FAFAFA",
"e+	c #A3AAB4",
"f+	c #C3CBD9",
"g+	c #D0D9E9",
"h+	c #C8D2E5",
"i+	c #ABB4C3",
"j+	c #D4DCEA",
"k+	c #C4D0E6",
"l+	c #1D8D23",
"m+	c #3F9D44",
"n+	c #4FA553",
"o+	c #51A756",
"p+	c #74B877",
"q+	c #E8F2E9",
"r+	c #97C99A",
"s+	c #6DB471",
"t+	c #E4EFE5",
"u+	c #F8F8F8",
"v+	c #F9F9F9",
"w+	c #F3F5F3",
"x+	c #9CA2AC",
"y+	c #C2C9D7",
"z+	c #D3DBEA",
"A+	c #D1DAE9",
"B+	c #CFD8E9",
"C+	c #CDD7E8",
"D+	c #9096A1",
"E+	c #ECEFF6",
"F+	c #C8D4E8",
"G+	c #1F8F25",
"H+	c #1D8C23",
"I+	c #1F8D25",
"J+	c #2B9331",
"K+	c #5EAC63",
"L+	c #E2EDE3",
"M+	c #B0D5B2",
"N+	c #DBE9DB",
"O+	c #F6F6F6",
"P+	c #F5F5F5",
"Q+	c #F4F4F4",
"R+	c #F3F4F3",
"S+	c #9BA1AA",
"T+	c #C3CAD7",
"U+	c #D4DCEB",
"V+	c #D0D3DA",
"W+	c #EDF0F6",
"X+	c #CBD6EA",
"Y+	c #24952A",
"Z+	c #1D8B22",
"`+	c #1C8B22",
" @	c #1C8A22",
".@	c #50A455",
"+@	c #E0EAE1",
"@@	c #F1F3F1",
"#@	c #F2F2F2",
"$@	c #F0F0F0",
"%@	c #EFEFEF",
"&@	c #D3E1D3",
"*@	c #9DA2AB",
"=@	c #C4CBD7",
"-@	c #D8E0EE",
";@	c #D7DFEE",
">@	c #D3DCEA",
",@	c #D0DAE9",
"'@	c #CFD9EC",
")@	c #26932B",
"!@	c #1C8922",
"~@	c #56A65B",
"{@	c #E1E9E1",
"]@	c #F1F1F1",
"^@	c #EEEEEE",
"/@	c #EBEBEB",
"(@	c #EAEAEA",
"_@	c #E9E9E9",
":@	c #E7E7E7",
"<@	c #E6E6E6",
"[@	c #7BB17D",
"}@	c #9FA4AD",
"|@	c #C7CED9",
"1@	c #DAE1EE",
"2@	c #D5DDED",
"3@	c #999EA8",
"4@	c #E9EEF5",
"5@	c #D1DBED",
"6@	c #208A25",
"7@	c #1B8620",
"8@	c #349339",
"9@	c #D7E4D8",
"0@	c #EDEDED",
"a@	c #ECECEC",
"b@	c #E8E8E8",
"c@	c #E4E4E4",
"d@	c #E2E2E2",
"e@	c #E0E0E0",
"f@	c #DFDFDF",
"g@	c #DEDEDE",
"h@	c #83B085",
"i@	c #448C4B",
"j@	c #A6AAB3",
"k@	c #CCD2DE",
"l@	c #DBE2EF",
"m@	c #7E8187",
"n@	c #FBFCFD",
"o@	c #D2DCEE",
"p@	c #1F7B23",
"q@	c #1B8421",
"r@	c #1D8422",
"s@	c #62A666",
"t@	c #DFE3E0",
"u@	c #E1E1E1",
"v@	c #DCDCDC",
"w@	c #DADADA",
"x@	c #D8D8D8",
"y@	c #D5D5D5",
"z@	c #CED0CE",
"A@	c #6FA071",
"B@	c #1B791F",
"C@	c #71937B",
"D@	c #B0B7BF",
"E@	c #D4D9E5",
"F@	c #DEE5F1",
"G@	c #DCE3F1",
"H@	c #DAE2EF",
"I@	c #D8DFED",
"J@	c #FCFDFE",
"K@	c #D4DEF0",
"L@	c #208425",
"M@	c #197E1E",
"N@	c #1A7E1F",
"O@	c #5EA062",
"P@	c #D9DAD9",
"Q@	c #DBDBDB",
"R@	c #D9D9D9",
"S@	c #D4D4D4",
"T@	c #D0D0D0",
"U@	c #CCCCCC",
"V@	c #CACACA",
"W@	c #BBC1BB",
"X@	c #7BA07D",
"Y@	c #3C7F3F",
"Z@	c #176C1B",
"`@	c #46854C",
" #	c #A0A4AB",
".#	c #C3C8D1",
"+#	c #DCE2ED",
"@#	c #D6DEED",
"##	c #D5DFF0",
"$#	c #1E7E22",
"%#	c #18771D",
"&#	c #18761D",
"*#	c #559358",
"=#	c #C7CBC8",
"-#	c #CBCBCB",
";#	c #80A481",
">#	c #82A284",
",#	c #809F82",
"'#	c #6B926D",
")#	c #286F2C",
"!#	c #146218",
"~#	c #146118",
"{#	c #36793A",
"]#	c #8A9693",
"^#	c #B3B8C0",
"/#	c #D2D8E2",
"(#	c #E0E7F2",
"_#	c #DFE6F2",
":#	c #D9E1EE",
"<#	c #85898F",
"[#	c #F5F7FB",
"}#	c #1C7521",
"|#	c #176F1C",
"1#	c #156C1A",
"2#	c #518954",
"3#	c #B5B9B5",
"4#	c #276F2B",
"5#	c #146318",
"6#	c #145F18",
"7#	c #125C16",
"8#	c #125716",
"9#	c #145B17",
"0#	c #3D7743",
"a#	c #889592",
"b#	c #ABAFB7",
"c#	c #CBD0D9",
"d#	c #E0E5F0",
"e#	c #E2E8F4",
"f#	c #777A7F",
"g#	c #FDFEFE",
"h#	c #D6DFF1",
"i#	c #175A1A",
"j#	c #2C7233",
"k#	c #1D6821",
"l#	c #427745",
"m#	c #236326",
"n#	c #135916",
"o#	c #155819",
"p#	c #1D5D21",
"q#	c #366C3A",
"r#	c #64836B",
"s#	c #989BA1",
"t#	c #ACAFB7",
"u#	c #C7CCD5",
"v#	c #DDE3EC",
"w#	c #E4EAF5",
"x#	c #D9E0EF",
"y#	c #7D8694",
"z#	c #9A9DA2",
"A#	c #9D9D9D",
"B#	c #9B9B9B",
"C#	c #94979A",
"D#	c #929499",
"E#	c #94979C",
"F#	c #999CA1",
"G#	c #A3A7AD",
"H#	c #B7BBC2",
"I#	c #CED2DB",
"J#	c #DEE4ED",
"K#	c #E5EBF5",
"L#	c #E1E8F3",
"M#	c #D9E0EE",
"N#	c #9AA4B5",
"O#	c #B9BDC3",
"P#	c #B9B9B9",
"Q#	c #B3B4B5",
"R#	c #ACAFB4",
"S#	c #ABAEB4",
"T#	c #AFB3B9",
"U#	c #BABEC5",
"V#	c #C8CCD4",
"W#	c #D9DDE6",
"X#	c #E3E7F1",
"Y#	c #787B81",
"Z#	c #FAFBFD",
"`#	c #B3BFD3",
" $	c #E2E7EE",
".$	c #E0E1E5",
"+$	c #D7DBE2",
"@$	c #D8DCE3",
"#$	c #DADFE6",
"$$	c #E0E5ED",
"%$	c #E4E9F3",
"&$	c #E9EEF8",
"*$	c #E8EEF8",
"=$	c #74777C",
"-$	c #D6E0F2",
";$	c #F8FAFE",
">$	c #EFF4FC",
",$	c #EEF3FB",
"'$	c #EDF2FB",
")$	c #EAEFF9",
"!$	c #FCFCFE",
"~$	c #EAF3FF",
"{$	c #D7DEED",
"              . . . . . . . . . . . . . . . +                   ",
"              . @ # # # # # # $ % & * = - ; > ,                 ",
"              . ' # # # # # $ % ) ! ~ { ] ^ / ( _               ",
"              . ' # # # # # $ : < [ * } | 1 2 3 4 5             ",
"              . ' # # # # # # 6 7 8 9 0 a b c d e f g           ",
"              h i j k l m n o p q d r s t u v # w x y z         ",
"            A B C D E D F G H I J K L M = N O P Q R S T U       ",
"        V # # # # W X Y C # # Z `  ...+.@.#.$.%.%.%.%.%.%.%.    ",
"      &.# *.=.-.;.>.,.'.).!.# # # ~.{.].^./.(.] _.:.<.[.}.|.    ",
"    1.2.3.4.5.6.7.8.9.0.3.a.b.# # # c.d.e.f.(.u g.h.i.j.k.|.    ",
"    l.m.n.o.p.q.c.r.s.r.t.u.v.w.F # x.y.z.A.B.C.D.E.F.G.H.|.    ",
"    I.J.K.L.M.N.O.P.Q.R.S.n.T.U.F F F V.W.X.Y.Z.`. +.+++@+|.    ",
"  #+$+%+&+*+=+-+;+>+>+,+'+)+!+~+F ~+{+]+^+/+(+_+:+<+`.[+}+|.    ",
"  |+1+2+3+4+5+6+7+8+9+0+a+b+c+c+c+c+d+b+e+f+g+_.^ h+i+j+k+|.    ",
"  $+l+l+2+m+n+o+p+q+r+s+t+d+d+u+v+u+u+w+x+y+z+A+B+C+D+E+F+|.    ",
"  G+H+H+H+I+J+K+L+d+M+N+O+O+P+P+Q+Q+Q+R+S+T+] U+z+A+V+W+X+|.    ",
"  Y+Z+`+`+ @.@+@O+P+@@#@#@$@%@%@%@%@$@&@*@=@-@;@U+>@b ,@'@|.    ",
"  )@H+ @!@~@{@#@#@]@%@^@/@(@_@_@:@:@<@[@}@|@- 1@-@2@3@4@5@|.    ",
"    6@7@8@9@^@0@a@_@b@<@c@d@e@f@g@g@h@i@j@k@B.l@N -@m@n@o@|.    ",
"    p@q@r@s@t@:@c@u@f@v@w@x@y@y@z@A@B@C@D@E@F@G@H@I@]@J@K@|.    ",
"      L@M@N@O@P@Q@R@S@T@U@V@W@X@Y@Z@`@ #.#+#a | H@N @#2@##|.    ",
"        $#%#&#*#=#-#;#>#,#'#)#!#~#{#]#^#/#(#_#X.| :#<#[###|.    ",
"          }#|#1#2#3#4#5#6#7#8#9#0#a#b#c#d#e#_##.| H@f#g#h#|.    ",
"            i#j#k#l#m#n#o#p#q#r#s#t#u#v#w#x _#X.| x## J@h#|.    ",
"              y#z#A#B#C#D#E#F#G#H#I#J#K#K#L#{ X.| M#-@-@##|.    ",
"              N#O#P#Q#R#S#T#U#V#W#X#0 @.= L#_#X.| :#Y#Z#h#|.    ",
"              `# $b@.$+$@$#$$$%$&$*$0 @.= { _#| H@-@=$g#-$|.    ",
"              . ' # ;$>$>$,$'$)$)$*$0 @.= { _#| H@-@# !$-$|.    ",
"              . ~$# ;$>$>$,$'$)$)$*$0 @.= { _#| H@-@-@{$-$|.    ",
"              . |.|.|.|.|.|.|.|.|.|.|.|.|.|.|.|.|.|.|.|.|.|.    ",
"                                                                ",
"                                                                "};
