/* XPM */
static char * spell_cap_up_xpm[] = {
"32 32 11 1",
" 	c Gray75 s backgroundToolBarColor",
".	c #585858",
"+	c #000000",
"@	c #DCDCDC",
"#	c #C00000",
"$	c #FFFFFF",
"%	c #FF5151",
"&	c #FF0000",
"*	c #800000",
"=	c #FF0505",
"-	c #FF1212",
"                                ",
"                                ",
"                                ",
"   .++.@   +++++.@      +++@    ",
"  .++++.@   ++++++@   .+++++@   ",
"  ++@@++@   ++@@ .+@  +.@@@.+@  ",
" .+@   +.@  ++@   +@ .+@   @+@  ",
" ++@   ++@  ++@  .+@ ++@        ",
" ++@   ++@  ++++++@  ++@        ",
" ++++++++@  ++@@.++@ ++@        ",
" ++@@@@++@  ++@   +@ ++@        ",
" ++@   ++@  ++@   +@ .+@    +@  ",
" ++@   ++@  ++@  .+@  +.   .+@ #",
" ++@   ++@  ++++++@   .+++++@ #$",
"++++@ ++++@+++++.@      +++@ #$%",
"                            #$%&",
"                           #$%&#",
"                          #$%&#*",
"              **         #$%&#*+",
"             *$#*       #$%&#*+ ",
"            *$%&#*     #$%=#*+  ",
"            *#&&&#*   #$%-#*+   ",
"             *#&&&#* #$%&#*+    ",
"              *#&&&#*$%&#*+     ",
"               *#&&&#&&#*+      ",
"                *#&&&&#*+       ",
"                 *#&&#*+        ",
"                  *##*+         ",
"                   **+          ",
"                    +           ",
"                                ",
"                                "};
