/* XPM */
static char *TBxdvi[]={
"32 32 119 2",
"Qt c Gray75 s backgroundToolBarColor",
".j c #000000",
"#n c #04b3b9",
"#k c #07e7e9",
".i c #080606",
"#g c #0afffe",
".h c #0b0b0b",
".g c #121212",
".f c #1a1313",
".T c #1c1c1c",
"#I c #23206d",
".e c #242424",
"#x c #272579",
"#S c #28247d",
".d c #2a2929",
"#R c #2b2785",
"#m c #2b2a86",
"#f c #2c2524",
"#q c #2d2b8d",
"#l c #2f2d91",
"#p c #302e93",
"#i c #303096",
".J c #323232",
"#h c #323298",
".c c #3d3d3d",
".b c #424242",
"#b c #4b4b4b",
"#A c #535064",
".a c #535353",
"#t c #5a586e",
".# c #5a5a5a",
".E c #626263",
"#o c #635958",
".A c #6d6d6d",
".z c #727274",
"## c #7a7063",
".q c #7b7b7b",
"#e c #847a6a",
".B c #848484",
".y c #8c8c8c",
".P c #8d8680",
"#. c #938a7a",
".3 c #939393",
"#v c #95846d",
"#u c #998972",
"#a c #999082",
".r c #9b9b9b",
".R c #a1998c",
".8 c #a29789",
"#B c #a39176",
".v c #a3a3a3",
"#C c #a79479",
".9 c #a8a195",
"#K c #aa987d",
"#z c #ab9d89",
".G c #ababab",
"#J c #ae9c83",
".S c #afa89c",
".7 c #b2aba1",
".C c #b5b5b5",
"#d c #b7b1a8",
"#y c #baab98",
".6 c #bbb5ac",
".p c #bcbcbc",
"#s c #beb3a3",
".Q c #beb8b0",
"#L c #c2ac8d",
".W c #c2bdb5",
".m c #c3c3c3",
".2 c #c6c1b9",
"#H c #c9b79e",
".V c #c9c5bd",
".5 c #cbc7c0",
"#M c #ccb494",
".k c Gray75 s backgroundToolBarColor",
".Z c #cdc9c2",
".1 c #d0ccc5",
".Y c #d1cec9",
"#T c #d2b998",
".x c #d2d2d2",
"#r c #d5cabb",
".U c #d5d2cd",
"#G c #d7c7ae",
"#c c #d8d4cf",
".N c #d9d6d1",
"#U c #dac09e",
".K c #dbdbdb",
"#w c #dccebb",
".X c #dcd9d4",
"#Z c #dec4a1",
"#0 c #e0c6a3",
".4 c #e0ddd9",
"#Y c #e2c8a4",
"#F c #e3d3bb",
".L c #e3e1dd",
"#X c #e4cdac",
".s c #e4e3e2",
"#Q c #e6d2b6",
"#W c #e8d3b5",
".H c #e8e6e4",
"#P c #e9d6bb",
"#V c #ebd9bf",
".I c #ebddc9",
".O c #ebe9e6",
"#O c #ecdbc3",
".w c #ecebea",
"#E c #eee0cc",
"#j c #eee7dd",
"#N c #f0e2ce",
"#D c #f1e5d4",
".F c #f3e9dc",
".M c #f4f3f2",
".D c #f5ede2",
".u c #f7f0e6",
".0 c #f7f2ec",
".o c #f8f3eb",
".t c #faf6f0",
".n c #fbf8f5",
".l c #fefefe",
"QtQt.#.a.a.a.b.c.c.d.e.e.f.g.h.i.j.j.j.j.j.j.j.j.j.k.k.k.k.k.k.k",
"Qt.#.l.#.m.l.l.l.l.l.l.l.l.l.l.l.l.l.l.l.l.n.j.j.j.k.k.k.k.k.k.k",
".a.l.l.a.m.l.l.l.l.l.l.l.l.l.l.l.l.l.l.n.n.o.j.j.j.k.k.k.k.k.k.k",
".#.#.a.#.p.l.q.r.l.q.#.q.#.r.s.q.#.l.#.#.o.o.j.j.j.j.k.k.k.k.k.k",
".a.m.p.m.p.l.l.l.l.l.l.l.l.l.l.l.l.l.n.t.o.u.j.v.w.j.k.k.k.k.k.k",
".a.l.l.l.l.l.l.l.l.l.l.x.y.z.z.A.B.C.o.o.u.D.j.v.w.j.k.k.k.k.k.k",
".b.l.l.#.q.s.q.C.l.m.E.d.d.d.d.c.j.c.E.v.D.F.j.v.w.j.k.k.k.k.k.k",
".b.l.l.l.l.l.l.l.G.d.d.C.w.l.H.x.l.k.g.g.z.I.j.v.w.j.k.k.k.k.k.k",
".c.l.l.#.l.q.l.G.d.v.w.l.n.l.l.l.l.l.n.v.e.q.d.r.w.j.k.k.k.k.k.k",
".J.l.l.l.l.l.m.d.v.n.K.l.G.K.G.x.L.w.M.N.G.g.b.y.s.j.k.k.k.k.k.k",
".d.l.l.l.l.l.c.A.w.l.l.l.n.M.M.t.w.L.O.N.M.A.g.q.k.j.j.k.k.k.k.k",
".e.l.l.#.s.k.d.m.w.K.x.C.m.P.Q.w.R.S.L.H.M.p.e.#.C.j.j.k.k.k.k.k",
".T.l.l.l.l.#.e.l.x.K.w.M.l.n.H.L.U.V.W.X.L.w.T.d.v.j.j.j.k.k.k.k",
".f.l.l.#.l.d.z.l.l.l.l.l.l.M.w.X.N.Y.Z.U.N.0.#.T.r.j.j.j.k.k.k.k",
".g.l.l.l.l.d.z.l.l.l.l.l.M.w.X.X.1.Z.2.Z.1.L.#.T.3.j.j.j.k.k.k.k",
".h.l.l.#.x.d.z.x.C.k.L.M.M.N.4.2.5.6.7.8.9.N.#.h.3.j.j.j.k.k.k.k",
".i.l.l.l.l.d.#.n.H.Z.Q#..V.R.W.S###a.S.6.U.N#b.e.y.j.j.j.k.k.k.k",
".j.l.l.l.l.C.d.K#c.w.O.X.X.X.N#c.5.5.5.5.V.V.e#b.3.j.j.j.k.k.k.k",
".j.l.l.q.C.l.d.q.O.H.H#d.Q#a.6#d#e.7.S#a.W.a.i.#.y.j.j.j.k.k.k.k",
".j.l.l.l.l.n.v.f.r.w.X.X.X.Z.Z.Z.Z.W.5.N.q.i.f.E.3.j.j.j.k.k.k.k",
".j.l.l.l.l.o.o.q.d.G.O.H.L.k.6.6.Y.1.Q.q.g#f#g.j.r.j.j.j.k.k.k.k",
".j.l#h#h#i#i.o#j.A.h.j.p.H.N.U.4.V.r.b.i#f#k.m.j.3.e.j.j.k.k.k.k",
".j.l.l#l.n.o#l.F#m.z.c.g.j#b.c.a.T.h.T.j#n.c#o.m.j.J.j.j.k.k.k.k",
".j.l.n#i.o.u#p.F#q#r#s#t.E.g.e.e.a#u#v#v.j.j.b.a.m.j.j.j.j.k.k.k",
".j.n.n#h.u.D#p.F#q.I#w#x#y#z#A#u#u#u#u#B#C#B.j.c.a.m.j.j.j.j.k.k",
".j.n.o#p.D.D#p#D#q#E#q#F#G#H#I#J#K#K#K#L#M#L.a.j.b.a.m.j.j.j.j.k",
".j.o#h#h#p#q.F#D#N#q#O#P#Q#R#R#S#T#M#T#U#U#U.a.z.j.c.a.m.j.j.j.j",
".j.o.D.D.F#D#D#N.I#O#V#P#W#X#Y#Y#Z#0#0#Y#Y#Y.d.B.G.j.b.a.m.j.j.j",
".j.j.j.j.j.j.j.j.j.j.j.j.j.j.j.j.j.j.j.j.j.j.j.B.p#b.j.c.a.m.j.j",
".j.j.j.j.v.r.v.r.r.r.r.3.3.3.3.3.3.y.y.y.y.y.y.3.m.c.j.j.c.a.m.j",
".j.j.j.j.H.s.s.K.K.K.K.K.N.x.x.x.k.k.k.m.m.m.m.m.k.j.j.j.j.c.c.j",
".k.k.k.j.j.j.j.j.j.j.j.j.j.j.j.j.j.j.j.j.j.j.j.j.j.j.j.j.j.j.j.j"};
