/* XPM */
static char * compile_cap_up_xpm[] = {
"32 32 194 2",
"  	c Gray75 s backgroundToolBarColor",
". 	c #363634",
"+ 	c #8A8E94",
"@ 	c #B2BAB4",
"# 	c #C6D2C4",
"$ 	c #CABABC",
"% 	c #BAC6BC",
"& 	c #D6DEDC",
"* 	c #D6D2CC",
"= 	c #BEBAB4",
"- 	c #CAC6BC",
"; 	c #D6CACC",
"> 	c #626264",
", 	c #BEC2BC",
"' 	c #CACEC4",
") 	c #CEDAD4",
"! 	c #C2CEC4",
"~ 	c #D6DAD4",
"{ 	c #B6B6B4",
"] 	c #CED2CC",
"^ 	c #C2C6BC",
"/ 	c #CAC6D4",
"( 	c #7A7A7C",
"_ 	c #BEBAC4",
": 	c #E2D2D4",
"< 	c #969A9C",
"[ 	c #D6D2DC",
"} 	c #BAC2C4",
"| 	c #D2C6CC",
"1 	c #C2CABC",
"2 	c #BABAB4",
"3 	c #726E74",
"4 	c #CED6CC",
"5 	c #4A4A4C",
"6 	c #8E9694",
"7 	c #CACAC4",
"8 	c #C6D6D4",
"9 	c #BEC2C4",
"0 	c #D6D6CC",
"a 	c #C6BEBC",
"b 	c #D2CECC",
"c 	c #C6BAC4",
"d 	c #BEBEB4",
"e 	c #DECEDC",
"f 	c #BEB2B4",
"g 	c #929294",
"h 	c #C6D2D4",
"i 	c #DEDED4",
"j 	c #CAC6CC",
"k 	c #D6CECC",
"l 	c #CACED4",
"m 	c #DEDAD4",
"n 	c #C2C6CC",
"o 	c #868684",
"p 	c #C2CACC",
"q 	c #BABEB4",
"r 	c #727674",
"s 	c #CED6DC",
"t 	c #565654",
"u 	c #B6BEBC",
"v 	c #CAC2BC",
"w 	c #BECABC",
"x 	c #6A6A6C",
"y 	c #CED2DC",
"z 	c #D2CAD4",
"A 	c #BEBEC4",
"B 	c #D6D6DC",
"C 	c #C6C2C4",
"D 	c #424244",
"E 	c #B6BAC4",
"F 	c #CAD2C4",
"G 	c #DAE2D4",
"H 	c #DAD2CC",
"I 	c #CEC6BC",
"J 	c #626664",
"K 	c #C6C2BC",
"L 	c #CECEC4",
"M 	c #D2DADC",
"N 	c #C6CED4",
"O 	c #DADAD4",
"P 	c #BAB6B4",
"Q 	c #D2D2CC",
"R 	c #C6C6BC",
"S 	c #C6CABC",
"T 	c #D2D6CC",
"U 	c #969694",
"V 	c #CECAC4",
"W 	c #DAD6CC",
"X 	c #C2BEB4",
"Y 	c #D6CEDC",
"Z 	c #8E8A84",
"` 	c #CAC2CC",
" .	c #8E9294",
"..	c #B6BAB4",
"+.	c #BEC6C4",
"@.	c #DADED4",
"#.	c #C2BABC",
"$.	c #C2C2B4",
"%.	c #D2DACC",
"&.	c #C6CEC4",
"*.	c #CACAD4",
"=.	c #9E9E9C",
"-.	c #BABAC4",
";.	c #727274",
">.	c #525254",
",.	c #CAD6CC",
"'.	c #C2C2C4",
").	c #C6BEC4",
"!.	c #BEB6BC",
"~.	c #96928C",
"{.	c #DACED4",
"].	c #BABEC4",
"^.	c #767674",
"/.	c #5A5A5C",
"(.	c #C2BEC4",
"_.	c #DAD6DC",
":.	c #3A3A3C",
"<.	c #8E8E8C",
"[.	c #C6D2CC",
"}.	c #BAC6C4",
"|.	c #D6D2D4",
"1.	c #BEBABC",
"2.	c #CAC6C4",
"3.	c #D6CAD4",
"4.	c #666264",
"5.	c #CACECC",
"6.	c #D6DADC",
"7.	c #B6B6BC",
"8.	c #CED2D4",
"9.	c #8A8A8C",
"0.	c #7E7E7C",
"a.	c #DED6D4",
"b.	c #4E4E4C",
"c.	c #464644",
"d.	c #D2CACC",
"e.	c #C2BAC4",
"f.	c #9A9A9C",
"g.	c #DAD2DC",
"h.	c #929694",
"i.	c #CAD2D4",
"j.	c #CEC6CC",
"k.	c #CECED4",
"l.	c #C6C6CC",
"m.	c #C6CACC",
"n.	c #D2D6DC",
"o.	c #5A5654",
"p.	c #666664",
"q.	c #CEC2CC",
"r.	c #CECAD4",
"s.	c #767274",
"t.	c #C2B6BC",
"u.	c #C2C6C4",
"v.	c #C2CAC4",
"w.	c #BABABC",
"x.	c #CED6D4",
"y.	c #CACACC",
"z.	c #D6D6D4",
"A.	c #D2CED4",
"B.	c #BEBEBC",
"C.	c #DEDEDC",
"D.	c #D6CED4",
"E.	c #DEDADC",
"F.	c #BABEBC",
"G.	c #CAC2C4",
"H.	c #BECAC4",
"I.	c #D2CADC",
"J.	c #BEBECC",
"K.	c #D6D6E4",
"L.	c #C6C2CC",
"M.	c #CAD2CC",
"N.	c #DAD2D4",
"O.	c #CEC6C4",
"P.	c #CECECC",
"Q.	c #DADADC",
"R.	c #BAB6BC",
"S.	c #D2D2D4",
"T.	c #C6C6C4",
"U.	c #C6CAC4",
"V.	c #D2D6D4",
"W.	c #96969C",
"X.	c #CECACC",
"Y.	c #DAD6D4",
"Z.	c #C2BEBC",
"`.	c #8E8A8C",
" +	c #B6BABC",
".+	c #DADEDC",
"++	c #C2C2BC",
"@+	c #D2DAD4",
"#+	c #C6CECC",
"$+	c #CAD6D4",
"%+	c #C2C2CC",
"&+	c #C6BECC",
"*+	c #969294",
"=+	c #76767C",
" +{ w...F.7.2 u Z.F.B.c Z., e.B.B.u.H.G.Z.^ L.v.v.m.2.v.m.m.y.2.",
"q  +{ { { R.w.B.Z.1.F.R.#.].B.F.e.K T.'.(.'.'.m.&.u.7 l.C O.T.y.",
"@ @ f 7.= w.w., w.#.+.B.B.B.u.++'.(.! } %+'.l.u.` U.T.j U /.7 y.",
"f P P w.2 2 u = _ d F.++-.#.).9 H.a 9 T.v.C u.l.# y.y.U.g o.5.2.",
".. + +w.q F.B.(.$.++% B.} +., U /.}.u.'.u.T.$ +.5.2.j.v.M.2.' < ",
"7.F.1.= A !.w.'.e.#.1.'.^ c Z.+ t v.a h.n U.U.q.&+u.` U 9.^.P.b ",
"P 1.2 w.#.9 , u Z.A ++A '.'.Z.G.K 9 g > t y.R T.%+y.=.g 0.;.9.] ",
"w.u  +F.1.= w.B.u.% -.(.'.% *+9.^.c ! J U.v j G.] g g ( x > t >.",
"#.X E B.w.A (.Z.A (.'.+.R =.g 0.;.o C l.7 y.j j 5.9.0.p.t >.5 D ",
"B.].B., 1.#. +++'.+.C v g g ( x > t >.7 j r X.*.5.^.;.t b.5 c.:.",
"..7._ 1.} '.(., K 9 (.e.9.0.p.t >.5 D G.9.:.X.y.j.j /.>.5 D . ] ",
"1., } u.} F.Z.'.9 H.U.'.^.;.t b.5 c.:.++7 y.#+7 y.7 5.5 D ;.Q Q ",
"w.B.).Z.X A u.C G.9 C n +./.>.5 D . j 2.y.5.5.m.k.l 5.4 k.k 8 l ",
"!., A B.'.1.S T.'.9 C ^ y.+.5 D ;.j U.r.#+X.j.# l d.Q 3.@+V.4 z ",
"B.a +.^ '.(.9 C ++T.j.u.v.v.n U.l.T.7 7 m.#+y.5.Q X.M.X.l A.Q V.",
"(.1.a (.'.A K (.U.m., l.T.%+2.U.| y.y.] j P.O.5.M.$+|.P.Q 8.|.z ",
", p Z.} K Z.+.- u.l.2.U.u.y.l.U /.M.y.U.y.j.5.|.P.A.z i.{.x.b D.",
"H.++C 9 n n u.m.G.' j 7 j +.C 6 /.7 T.U y.X.k r.5.b 4 Q Q x.|.|.",
", 9 t.U /.).T.q.U.m.j V ` X.u.m.P.U.W.J /.5.d.k.y D.|.] |.P.0 8.",
"K (.C <.t v.T. .T.T.5.j 5.V U 9.^.` 5.p.y.b X.Q z * S.~ | ] z._.",
"++9 H.T.&.T.*+> o.5.V X.L =.g 0.;.o j.P.| k.A.T S.T Q 8.D.S.W V.",
"e.+.*+9.^.v.7 p.%+m.G.#+g g ( x > o.>./ 4 ^.k A.b S.S.Y.|.|.z.S.",
"^ =.g 0.;.o L.L j 7 | X.9.0.p.t >.5 D / + :.5.b |.S.S.~ A._.S.m ",
"g g ( x > t >.7 5.s.j.U.^.;.t b.5 c.:.Q 8.S.b A.A.0 ~ |.Y.z.{._.",
"9.0.p.t >.5 D U.9.:.5.X.' /.>.5 D . ] k 3.A.z S.[ ,.z.Y.8.V.S.& ",
"^.;.t b.5 c.:.r.m.5.j 5.P.j 5 D s.5.M.z ] ; k.|.H B S.~ z.6.e ~ ",
"T./.>.5 D . 7 l y.l y.m.X.5.P.] k.8.b 8.V.z.V.@+8.T V._.|.V._.G ",
"U.&.5 D 3 X.&.2.m.5.4 P.Q ] / y.] {.k.8.D.*.V.Q ) ~ 8.m a.O {.[ ",
"u.V u.7 n m.y.y.G.*.P.5.5.y.b S.D.P.|.A.z.Q i.B Y.B 6.z.g.) Q._.",
"l T.V O.5.j P.y.P.] *.P.M.k.8.8.8.A.8.] z.Y.{.S.z.S.O y @+.+C.M ",
"# L.5.U /.G.j.#+P.#+5.d.i.y.k S.A.S.z.T T Y.N.~ O K.6.N.Q._.i .+",
"7 #+y.<.t P.] *+*.A.A.Q i.8.] l A.,.A.V.S.z.T O |.~ Y.a.m _.6.Q."};
