/* XPM */
static char * redo_cap_up_xpm[] = {
"32 32 119 2",
"  	c Gray75 s backgroundToolBarColor",
". 	c #17AC00",
"+ 	c #19AE00",
"@ 	c #1AB000",
"# 	c #18AC00",
"$ 	c #14A500",
"% 	c #02A200",
"& 	c #06A400",
"* 	c #06A500",
"= 	c #50C24A",
"- 	c #7DD377",
"; 	c #BAEAB7",
"> 	c #9BDE97",
", 	c #5FC859",
"' 	c #15AB0F",
") 	c #039A00",
"! 	c #009D00",
"~ 	c #0CA40C",
"{ 	c #65CF65",
"] 	c #B6F3B6",
"^ 	c #D2FFD2",
"/ 	c #72D572",
"( 	c #009A00",
"_ 	c #009700",
": 	c #009900",
"< 	c #32B932",
"[ 	c #A0F9A0",
"} 	c #ACFFAC",
"| 	c #95F395",
"1 	c #1EAC1E",
"2 	c #009300",
"3 	c #009400",
"4 	c #51D751",
"5 	c #77F177",
"6 	c #50D050",
"7 	c #48C948",
"8 	c #25AE25",
"9 	c #36BC36",
"0 	c #68E468",
"a 	c #86FF86",
"b 	c #7DF87D",
"c 	c #17A817",
"d 	c #008F00",
"e 	c #008D00",
"f 	c #059605",
"g 	c #2CC02C",
"h 	c #15A315",
"i 	c #008200",
"j 	c #007E00",
"k 	c #007700",
"l 	c #008300",
"m 	c #008900",
"n 	c #0E9D0E",
"o 	c #41D441",
"p 	c #61FF61",
"q 	c #53F153",
"r 	c #007B00",
"s 	c #008800",
"t 	c #008A00",
"u 	c #007600",
"v 	c #005700",
"w 	c #007A00",
"x 	c #0D9F0D",
"y 	c #38F838",
"z 	c #3BFF3B",
"A 	c #1BC51B",
"B 	c #008400",
"C 	c #069B06",
"D 	c #14F714",
"E 	c #15FF15",
"F 	c #12F712",
"G 	c #006800",
"H 	c #007F00",
"I 	c #006900",
"J 	c #00FC00",
"K 	c #00A600",
"L 	c #007200",
"M 	c #007900",
"N 	c #006D00",
"O 	c #00C600",
"P 	c #00F400",
"Q 	c #00B700",
"R 	c #007800",
"S 	c #007500",
"T 	c #00ED00",
"U 	c #00CF00",
"V 	c #006B00",
"W 	c #007000",
"X 	c #00BA00",
"Y 	c #00E600",
"Z 	c #009C00",
"` 	c #005200",
" .	c #006200",
"..	c #00B300",
"+.	c #00DE00",
"@.	c #009600",
"#.	c #004900",
"$.	c #005D00",
"%.	c #006600",
"&.	c #00AD00",
"*.	c #00D700",
"=.	c #009000",
"-.	c #004500",
";.	c #005800",
">.	c #006000",
",.	c #00D000",
"'.	c #004100",
").	c #005400",
"!.	c #005C00",
"~.	c #00A000",
"{.	c #00C800",
"].	c #008500",
"^.	c #003E00",
"/.	c #005300",
"(.	c #005B00",
"_.	c #009B00",
":.	c #00C100",
"<.	c #003D00",
"[.	c #007100",
"                                                                ",
"                                                                ",
"                                                                ",
"                                                                ",
"                                                                ",
"                                                                ",
"                    . + @ @ @ @ @ # $                           ",
"              % & * = - ; ; ; ; > , ' * )                       ",
"            ! ~ { ] ^ ^ ^ ^ ^ ^ ^ ^ ^ / ~ (                     ",
"        _ : < [ } } } } } } } } } } } } | 1 _                   ",
"      2 3 4 5 6 7 8 8 9 7 0 a a a a a a a b c d                 ",
"    e f g h d d i j k l m d n o p p p p p p q f r               ",
"  s t t t u v               w t x y z z z z z A t               ",
"  B B r                         i C D E E E E F B G             ",
"H H I                             j _ J J J J J K L             ",
"M                                 N w O P P P P Q R             ",
"                          S S S S S S ( T T T T U S S S S S S S ",
"                          V W X Y Y Y Y Y Y Y Y Y Y Y Y Y Z W ` ",
"                             .V ..+.+.+.+.+.+.+.+.+.+.+.@.V #.  ",
"                              $.%.&.*.*.*.*.*.*.*.*.*.=.%.-.    ",
"                                ;.>.K ,.,.,.,.,.,.,.t >.'.      ",
"                                  ).!.~.{.{.{.{.{.].!.^.        ",
"                                    /.(._.:.:.:.i (.<.          ",
"                                      /.(._ X H (.<.            ",
"                                        /.(.[.(.<.              ",
"                                          /.(.^.                ",
"                                                                ",
"                                                                ",
"                                                                ",
"                                                                ",
"                                                                ",
"                                                                "};
