/* XPM */
static char * workshop_cap_up_xpm[] = {
"32 32 238 2",
"  	c Gray75 s backgroundToolBarColor",
". 	c #020204",
"+ 	c #06AEB4",
"@ 	c #0AE2DC",
"# 	c #82D6E4",
"$ 	c #9EE2EC",
"% 	c #BAC2C4",
"& 	c #B6D2D4",
"* 	c #CEC2C4",
"= 	c #CED2CC",
"- 	c #DAE2D4",
"; 	c #828284",
"> 	c #D2DACC",
", 	c #A6A6A4",
"' 	c #BECABC",
") 	c #B2B6B4",
"! 	c #424244",
"~ 	c #CAF2F4",
"{ 	c #C2B6BC",
"] 	c #DAD2CC",
"^ 	c #CECAC4",
"/ 	c #E2F6F4",
"( 	c #C6C2BC",
"_ 	c #DACED4",
": 	c #B6E6EC",
"< 	c #B6BEBC",
"[ 	c #D6D2DC",
"} 	c #626264",
"| 	c #CECAD4",
"1 	c #C6CAC4",
"2 	c #DADAD4",
"3 	c #52CADC",
"4 	c #BAB6B4",
"5 	c #2E2E2C",
"6 	c #D6D2CC",
"7 	c #EAFAFC",
"8 	c #92DAE4",
"9 	c #6ACEDC",
"0 	c #C6C2CC",
"a 	c #C6CEC4",
"b 	c #AAE2EC",
"c 	c #C2C2BC",
"d 	c #CADEDC",
"e 	c #CEDEDC",
"f 	c #C2BEBC",
"g 	c #C6D2C4",
"h 	c #CED6CC",
"i 	c #CAEAEC",
"j 	c #929294",
"k 	c #525254",
"l 	c #D6F2F4",
"m 	c #D6CACC",
"n 	c #EAF2F4",
"o 	c #C2EEF4",
"p 	c #727274",
"q 	c #D6CAD4",
"r 	c #E2D2D4",
"s 	c #BABAB4",
"t 	c #C6D6D4",
"u 	c #0E0E0C",
"v 	c #B2BAB4",
"w 	c #DAD6CC",
"x 	c #CECEC4",
"y 	c #BAEEF4",
"z 	c #3A3A3C",
"A 	c #9ADEE4",
"B 	c #7AD6E4",
"C 	c #B2EAEC",
"D 	c #C2C6BC",
"E 	c #D6DADC",
"F 	c #D2EEF4",
"G 	c #8ADAE4",
"H 	c #BECACC",
"I 	c #CABABC",
"J 	c #C6C6C4",
"K 	c #BEEAEC",
"L 	c #CECED4",
"M 	c #CACAD4",
"N 	c #DADEDC",
"O 	c #62CADC",
"P 	c #C6C6CC",
"Q 	c #C6CED4",
"R 	c #CAEEF4",
"S 	c #DEF2F4",
"T 	c #BABAC4",
"U 	c #82DAE4",
"V 	c #CEC6CC",
"W 	c #D2D2CC",
"X 	c #8A8A8C",
"Y 	c #C2CABC",
"Z 	c #4A4A4C",
"` 	c #C2BABC",
" .	c #E6F6F4",
"..	c #B6EAEC",
"+.	c #BEBEBC",
"@.	c #D2D6DC",
"#.	c #6A6A6C",
"$.	c #CACAC4",
"%.	c #DEDAD4",
"&.	c #363634",
"*.	c #D6D6CC",
"=.	c #F2FAFC",
"-.	c #72D6E4",
";.	c #AAE6EC",
">.	c #C6BECC",
",.	c #C6D2D4",
"'.	c #D2D6CC",
").	c #9A9A9C",
"!.	c #5A5A5C",
"~.	c #EAF6FC",
"{.	c #7A7A7C",
"].	c #BEBAB4",
"^.	c #DAD6DC",
"/.	c #0A0A0C",
"(.	c #A6E6EC",
"_.	c #BEC6C4",
":.	c #D6DAD4",
"<.	c #BEB2B4",
"[.	c #B6B6B4",
"}.	c #D2F2F4",
"|.	c #D2CACC",
"1.	c #CAC2C4",
"2.	c #BABEB4",
"3.	c #D2CAD4",
"4.	c #32322C",
"5.	c #EEFEFC",
"6.	c #96DEE4",
"7.	c #72CEDC",
"8.	c #CACECC",
"9.	c #0EFEFC",
"0.	c #161614",
"a.	c #56D2DC",
"b.	c #5ED2DC",
"c.	c #AAAAAC",
"d.	c #DAF6F4",
"e.	c #121214",
"f.	c #060604",
"g.	c #868684",
"h.	c #464644",
"i.	c #666664",
"j.	c #969694",
"k.	c #565654",
"l.	c #767674",
"m.	c #3E3E3C",
"n.	c #8E8E8C",
"o.	c #4E4E4C",
"p.	c #6E6E6C",
"q.	c #9E9E9C",
"r.	c #5E5E5C",
"s.	c #7E7E7C",
"t.	c #D6CED4",
"u.	c #D6DEDC",
"v.	c #DEF6FC",
"w.	c #6AD2DC",
"x.	c #D6CECC",
"y.	c #62CEDC",
"z.	c #D6E2E4",
"A.	c #C2C2CC",
"B.	c #C2C6CC",
"C.	c #BEC2BC",
"D.	c #DECEDC",
"E.	c #96DAEC",
"F.	c #D2DEDC",
"G.	c #C6BEC4",
"H.	c #CAD2CC",
"I.	c #CEEAEC",
"J.	c #CAD6CC",
"K.	c #B6BAB4",
"L.	c #DED6D4",
"M.	c #D2CECC",
"N.	c #9EDEEC",
"O.	c #CAC6CC",
"P.	c #D2C6D4",
"Q.	c #C6BAC4",
"R.	c #BAEAEC",
"S.	c #D6D6DC",
"T.	c #EEF6F4",
"U.	c #86D6E4",
"V.	c #A2E2EC",
"W.	c #CEF2F4",
"X.	c #EEFAFC",
"Y.	c #CAC2CC",
"Z.	c #AEE2EC",
"`.	c #EEF2F4",
" +	c #C6EEF4",
".+	c #7ED6E4",
"++	c #CAC6C4",
"@+	c #D2CED4",
"#+	c #CACED4",
"$+	c #CEEEF4",
"%+	c #86DAE4",
"&+	c #AEE6EC",
"*+	c #CAD2D4",
"=+	c #CEC2CC",
"-+	c #CED2D4",
";+	c #D2DAD4",
">+	c #BECAC4",
",+	c #DAD2D4",
"'+	c #CECACC",
")+	c #E2F6FC",
"!+	c #C6C2C4",
"~+	c #C6CACC",
"{+	c #DADADC",
"]+	c #BAB6BC",
"^+	c #D6D2D4",
"/+	c #C6CECC",
"(+	c #C2C2C4",
"_+	c #C2BEC4",
":+	c #CED6D4",
"<+	c #CAEAF4",
"[+	c #BABABC",
"}+	c #DAD6D4",
"|+	c #CECECC",
"1+	c #9ADEEC",
"2+	c #B2EAF4",
"3+	c #C2C6C4",
"4+	c #C6C6D4",
"5+	c #D2D2D4",
"6+	c #C2CAC4",
"7+	c #C2BAC4",
"8+	c #E6F6FC",
"9+	c #B6EAF4",
"0+	c #CACACC",
"a+	c #DEDADC",
"b+	c #D6D6D4",
"c+	c #D2D6D4",
"d+	c #BEBABC",
"e+	c #B6B6BC",
"f+	c #BABEBC",
"g+	c #D2CADC",
"h+	c #323234",
"i+	c #DAF6FC",
"j+	c #D6CEDC",
"k+	c #D6DEE4",
"l+	c #D2DEE4",
"m+	c #CAD6D4",
"n+	c #B6BABC",
"o+	c #D6D6E4",
"n+[.[+K.f+e+s < f f++.Q.f C.7++.+.3+>+1.f D 0 6+6+~+++j.!.~+0+++",
"2.n+) 4 ) ]+[++.g.. . . . . . g.7+( J (+_+(+(+~+a 3+$.!.m.V ++p ",
"K.v <.]+].[+. . 5 r.s.).).n.i.e.. . >+% A.(+P 3+Y.~+~+O.Y.0+{.r.",
"<.4 [.[+s . k s.q.% F.e d ;+k+K.c.Z . J 6+!+3+P g ^ j X l.!+= ! ",
"v [+n+[+. k.n+k+z.7 i+S i+}.}.S S u.l.. 3+J I _./+q.j.s.p p.x 8.",
"e+f+[+. k < z. .8+/ i+i+ +y 2+2+y F X.!.. 1 1 =+j j l.#.} k.k L ",
"4 ` . k.K.z.X.7 8+ .d.~ : &+b 1+(.&+$+~.4.. J J X ; i.k.k Z h.-+",
"[+< . ; z.7 7 X.5.X.l  +K ;.V.A 6.N.Z.$+C.. ++1.l.p.k.o.Z h.z V ",
"` g.5 q.F.~.7 X.X. .l <+: (.A 8 8 6.b I.n /.g.V 8.!.k Z m.&.|+-+",
"+.. o._.7 /  .X. .S F o b V.8 U.U U 6.b n o.u ~+#+4+Z ! m.|+8.P.",
"[.. ; z.d.v.v.l l F o : (.1+U .+7.B U E.R )./.$.^ 0+^ /+|.|+|+h ",
"s . ).F.v.}.W.R  +o : (.8 %+.+7.w.9 7.6...(+/.0+O.^ 0+8.|+8.W @+",
"n+. ).e l W.R.K : b (.6.U.B 7.w.O a.7.6...5+/.~+| 8.8.-+|+x.t #+",
"{ . n.e i+ +&+b (.A E.U..+7.y.a.a.a.7.8 i , /.g ,.|.W x.c+'.:+|.",
"+.. Z C.i+ +(.$ 1+6.%+B 7.b.b.3 3 a.B (. .!./.^ :+'+*+|+#+W 5+c+",
"_+g.0.n+l  +N.A 8 %+B 7.y.b.3 3 3 9 8 i n . ; ,.8.m+6 |+5+L 6 3.",
"C.6+. n.d W.6.8 U..+7.9 O a.3 3 y.B V.i j . '+6 |+g+|.H.] :+M.t.",
">+(+. o.v 7 : A G .+7.b.a.3 a.B .+N.i ~.5 ; M.| #+= = 5+5+:+^+^+",
"C.C.{ . {.n+7 ..E.$ B B w.7.B G b i T.k.. . |.|+5+,+b+W ^+L *.-+",
"!+_+!+A.. {.) & F &+: 8 8 8 b i i n k.. p.9.. W 3.5+@+'.P.= b+^.",
"!+A.Y J a . &.X ) n `.F y  +n n X 5 . Z @ @ X . ^+'.c+= t.5+w c+",
"d+_.(+1.(+Y . . f.k ).c W , k.. . g.f.+ + k p X . 5+5+}+6 ^+b+5+",
"D 1 J j.!._+0 ^ g.. . . . . . ; ~+|.= . 4.Z k.p.n.. 5+E @+^.5+%.",
"0 >._+!.m.1.~+l.a 1 V 1 V 8.'+|+@+|+P.W . h+m.k p.X . ^+}+b+_ ^.",
"H V 3+P 1 $.{.r.m.#+8.x a 6+'+/+|.W W x._ . &.! k.p.n.. -+c+5+u.",
"V J j n.{._.6+! 0+'+Y.0+|+'+|+@+W ~+g '+5+|.. h+m.k.p n.. E D.:.",
"J q.j s.p p.~+#+1 8.#+/+0+8.|+|+L L t.*+^+*.b+. h+z k.p n.. ^.- ",
"j.j {.i.} k.k ++j.r.= |+M.= 0+8.5+,+L L j+O.c+W . &.m.k.p n.. [ ",
"X s.#.k.k Z h.|+!.m.'+8.0+O.@+:+x.8.b+M.b+W *+5+b+. h+! k.#.n.. ",
"l.p k.k Z h.z O.|+H.M L J.L |+-+-+t.-+= b+b+j+^+}+W . 4.! k.i.e.",
"a k.o.Z m.&.'+8.-+H.= |.*+#+m @+@+5+b+;+'.L.^+:.{+S.{+. h+! Z u ",
"0+g Z ! m.L = V | @+| W *+L 5+-+@+m+5+-+c+b+*.:.6 S.c+r . /./.a+"};
