/* XPM */
static char * folder_cap_up_xpm[] = {
"32 32 425 2",
"  	c Gray75 s backgroundToolBarColor",
". 	c #DCE2F4",
"+ 	c #F0F3FC",
"@ 	c #FFFFFF",
"# 	c #B9C3E8",
"$ 	c #F1F4FC",
"% 	c #F9F8FB",
"& 	c #EFEEF5",
"* 	c #F1F3FA",
"= 	c #FCFBFC",
"- 	c #ECECF3",
"; 	c #E7E7F2",
"> 	c #C8CEE8",
", 	c #F1F3F9",
"' 	c #FEFDFE",
") 	c #EEEEF5",
"! 	c #EDEDF3",
"~ 	c #E9E9F1",
"{ 	c #E8E8F1",
"] 	c #6D8DD1",
"^ 	c #F1F1F6",
"/ 	c #EEEEF6",
"( 	c #EBEBF4",
"_ 	c #EAEAF1",
": 	c #E5E5F0",
"< 	c #FBFAFB",
"[ 	c #D6D9EB",
"} 	c #2454B7",
"| 	c #50A7FF",
"1 	c #88C7FF",
"2 	c #F2F4FA",
"3 	c #F3F3F9",
"4 	c #F2F2F6",
"5 	c #EFEFF4",
"6 	c #E6E6EF",
"7 	c #E3E2ED",
"8 	c #7C98DD",
"9 	c #3A6AD6",
"0 	c #1F59D3",
"a 	c #5AB3FF",
"b 	c #71B2EF",
"c 	c #C4DBF2",
"d 	c #FBFCFF",
"e 	c #DDEDFF",
"f 	c #8ABDFB",
"g 	c #81A9DE",
"h 	c #F7F7FA",
"i 	c #F0F0F7",
"j 	c #ECECF4",
"k 	c #E9E9F2",
"l 	c #E9E8F0",
"m 	c #ECE8F0",
"n 	c #FFFDF9",
"o 	c #DFE3F3",
"p 	c #3666C0",
"q 	c #5180DA",
"r 	c #93A9DC",
"s 	c #A9DBFF",
"t 	c #0847CD",
"u 	c #64AFF2",
"v 	c #C3DFF5",
"w 	c #EAF3FF",
"x 	c #CBE3FF",
"y 	c #C0DCFF",
"z 	c #B8D8FF",
"A 	c #B6CCED",
"B 	c #F5F0EF",
"C 	c #FAFAFC",
"D 	c #F6F6F9",
"E 	c #F4F4F7",
"F 	c #F1F1F7",
"G 	c #F0EFF5",
"H 	c #F5F1F4",
"I 	c #FAF3F5",
"J 	c #EEEBF0",
"K 	c #88A7DA",
"L 	c #497AC9",
"M 	c #7598D6",
"N 	c #9DC0F1",
"O 	c #4BA2FF",
"P 	c #006CFF",
"Q 	c #0057E3",
"R 	c #0032B9",
"S 	c #5EBCFF",
"T 	c #E7F0FF",
"U 	c #D6E7FF",
"V 	c #CEE4FF",
"W 	c #C9E0FF",
"X 	c #B8CFEC",
"Y 	c #F0EDEC",
"Z 	c #FCFCFD",
"` 	c #F8F8FC",
" .	c #F7F4F8",
"..	c #FCF6F6",
"+.	c #AAC3E6",
"@.	c #568BD4",
"#.	c #6795D5",
"$.	c #A9C7F0",
"%.	c #8CC0FF",
"&.	c #58A3FD",
"*.	c #5CA5FE",
"=.	c #0466E0",
"-.	c #006AE5",
";.	c #0025B0",
">.	c #003BB8",
",.	c #A9D4F9",
"'.	c #E7F2FF",
").	c #D0E5FF",
"!.	c #C7E1FF",
"~.	c #C2D4EE",
"{.	c #F1EEEC",
"].	c #FCFCFC",
"^.	c #F5F5FA",
"/.	c #F9F7F8",
"(.	c #F2F1F6",
"_.	c #3D82D5",
":.	c #ACCBEE",
"<.	c #B9DAFF",
"[.	c #76B4FC",
"}.	c #58A1F9",
"|.	c #539AF8",
"1.	c #559CF5",
"2.	c #69AEFF",
"3.	c #4F9CF6",
"4.	c #0039BE",
"5.	c #0022AF",
"6.	c #003CB3",
"7.	c #71C2FF",
"8.	c #FCFCFF",
"9.	c #D3E6FF",
"0.	c #CFE4FF",
"a.	c #C6E1FF",
"b.	c #D6D2D2",
"c.	c #FEFEFF",
"d.	c #F9F9FA",
"e.	c #FAF8FA",
"f.	c #FFFFFB",
"g.	c #5595DA",
"h.	c #F1F8FF",
"i.	c #86BFFB",
"j.	c #75B2F8",
"k.	c #66A8F9",
"l.	c #589DF7",
"m.	c #599EF6",
"n.	c #589FF6",
"o.	c #6EB6FF",
"p.	c #2768D8",
"q.	c #001DAA",
"r.	c #002BB2",
"s.	c #0037A0",
"t.	c #5AB7FF",
"u.	c #D2E6FF",
"v.	c #CDE3FF",
"w.	c #C3DCFE",
"x.	c #B2C0DA",
"y.	c #F2F1F1",
"z.	c #FFFEFF",
"A.	c #FFFEFD",
"B.	c #FFFFFC",
"C.	c #629EDE",
"D.	c #C1D7F0",
"E.	c #A2CFFE",
"F.	c #80B9F9",
"G.	c #71B0F8",
"H.	c #5FA3F9",
"I.	c #589FF8",
"J.	c #5BA0F7",
"K.	c #6CB4FF",
"L.	c #326EDB",
"M.	c #001EA8",
"N.	c #0025AF",
"O.	c #0035BB",
"P.	c #BCD7F0",
"Q.	c #D6E6FF",
"R.	c #C6E0FF",
"S.	c #A5C1EB",
"T.	c #C9CAD4",
"U.	c #E9F0FA",
"V.	c #70ACE6",
"W.	c #71A9E3",
"X.	c #CCE3FA",
"Y.	c #AFD7FE",
"Z.	c #79B6F9",
"`.	c #68A9F8",
" +	c #5BA1F9",
".+	c #5DA5FA",
"++	c #60A8FC",
"@+	c #2E60D3",
"#+	c #0C39BF",
"$+	c #052FB6",
"%+	c #0026B0",
"&+	c #003AC1",
"*+	c #70AFEC",
"=+	c #E9F3FF",
"-+	c #C3DDFF",
";+	c #C2DDFF",
">+	c #B5D4FB",
",+	c #ABBCDE",
"'+	c #B9D1E9",
")+	c #6BB1EC",
"!+	c #8EC0ED",
"~+	c #E5F6FE",
"{+	c #C1E5FF",
"]+	c #A1D1FC",
"^+	c #8FC5FA",
"/+	c #81BBFB",
"(+	c #72B2FB",
"_+	c #63A7FB",
":+	c #589EF7",
"<+	c #3E7FEB",
"[+	c #2B5CD4",
"}+	c #1042C5",
"|+	c #0F41C8",
"1+	c #0231BA",
"2+	c #001BAF",
"3+	c #0037C1",
"4+	c #56AAFB",
"5+	c #BFDBFF",
"6+	c #BDDAFF",
"7+	c #BCDAFF",
"8+	c #87B6EC",
"9+	c #80BCEE",
"0+	c #D5F2FF",
"a+	c #BCE2FD",
"b+	c #A9D6FD",
"c+	c #99CCFC",
"d+	c #8AC2FB",
"e+	c #7CBAFD",
"f+	c #5F9CF4",
"g+	c #417DE7",
"h+	c #326EE2",
"i+	c #306BE3",
"j+	c #184DCD",
"k+	c #0A44D0",
"l+	c #0035C7",
"m+	c #0E3BBD",
"n+	c #969AC1",
"o+	c #144BC3",
"p+	c #CEE0F3",
"q+	c #B8D6FF",
"r+	c #B9D6FF",
"s+	c #83BBF3",
"t+	c #D2E7F8",
"u+	c #C7E5F1",
"v+	c #C7ECFF",
"w+	c #B4DBFC",
"x+	c #A3D2FD",
"y+	c #93C7FC",
"z+	c #7EB8F9",
"A+	c #619AEF",
"B+	c #4D89EC",
"C+	c #417EE8",
"D+	c #3875E7",
"E+	c #1B57D8",
"F+	c #0043D5",
"G+	c #0E45CC",
"H+	c #7C8CC6",
"I+	c #C6C0C5",
"J+	c #D6CBCA",
"K+	c #78AFE9",
"L+	c #D1E5FF",
"M+	c #B1D3FF",
"N+	c #B4D4FF",
"O+	c #79B5F2",
"P+	c #DCEEFA",
"Q+	c #A4CEED",
"R+	c #BCE2FC",
"S+	c #ADD7FE",
"T+	c #9ACDFD",
"U+	c #84BBFA",
"V+	c #6DA5F3",
"W+	c #5C97EF",
"X+	c #4B87EB",
"Y+	c #3E7CE9",
"Z+	c #1E60E2",
"`+	c #0C51DC",
" @	c #7B92D0",
".@	c #CFC7CB",
"+@	c #C1BDC7",
"@@	c #B5B3C4",
"#@	c #C0BDCA",
"$@	c #0029B3",
"%@	c #57A3F6",
"&@	c #F4F9FF",
"*@	c #ACCFFF",
"=@	c #B0D2FF",
"-@	c #6EB1EF",
";@	c #E9F7FF",
">@	c #8DC5F6",
",@	c #A0C9EE",
"'@	c #AAD9FF",
")@	c #8BC1FB",
"!@	c #78B1F6",
"~@	c #68A2F2",
"{@	c #5290F0",
"]@	c #3E80ED",
"^@	c #3475E9",
"/@	c #7B98D8",
"(@	c #D7D1D1",
"_@	c #CCC8CF",
":@	c #BDBCCD",
"<@	c #B8B7CA",
"[@	c #BFBBC8",
"}@	c #8E97C4",
"|@	c #002BA3",
"1@	c #DDE9F7",
"2@	c #A7CEFF",
"3@	c #ABCFFF",
"4@	c #68ADEC",
"5@	c #E9F9FF",
"6@	c #88C4FC",
"7@	c #80B7F0",
"8@	c #93C6F9",
"9@	c #86BDFA",
"0@	c #72ACF6",
"a@	c #5798F2",
"b@	c #488AEF",
"c@	c #94B0E3",
"d@	c #DCD5D8",
"e@	c #D6D1D7",
"f@	c #C9C8D3",
"g@	c #C2C1D1",
"h@	c #C3C2D0",
"i@	c #CAC4CD",
"j@	c #B7B2B8",
"k@	c #0844C0",
"l@	c #86B2E7",
"m@	c #B5D7FF",
"n@	c #A3CBFF",
"o@	c #6BAFEC",
"p@	c #D9EFFF",
"q@	c #80C1FF",
"r@	c #7BBAFA",
"s@	c #81B8F4",
"t@	c #7AB6FC",
"u@	c #62A1F6",
"v@	c #9BBAEB",
"w@	c #E4DDE0",
"x@	c #DED9DD",
"y@	c #D3D1DB",
"z@	c #CBCBD9",
"A@	c #CCCBD7",
"B@	c #D3CED4",
"C@	c #BDBBBF",
"D@	c #2F5CBA",
"E@	c #0043CE",
"F@	c #5A9FEF",
"G@	c #DFEFFF",
"H@	c #9BC6FF",
"I@	c #70AFEB",
"J@	c #C8E6FF",
"K@	c #7ABEFF",
"L@	c #79BCFE",
"M@	c #64A9F7",
"N@	c #AAC8F0",
"O@	c #EBE7E9",
"P@	c #E8E3E6",
"Q@	c #DCDBE2",
"R@	c #D6D6E0",
"S@	c #D5D4DF",
"T@	c #DDD8DE",
"U@	c #D3CCC9",
"V@	c #446ABE",
"W@	c #0044CB",
"X@	c #E1EEFC",
"Y@	c #93C3FF",
"Z@	c #72B0E9",
"`@	c #AFDAFF",
" #	c #76BCFF",
".#	c #ADD2FA",
"+#	c #F4EFF0",
"@#	c #F2ECED",
"##	c #E6E5EA",
"$#	c #E0E0E8",
"%#	c #DEDDE5",
"&#	c #E4E0E4",
"*#	c #E4DCD3",
"=#	c #6283C5",
"-#	c #0143CB",
";#	c #95B8E6",
">#	c #9AC7FF",
",#	c #6EACE8",
"'#	c #D1E9FF",
")#	c #F9F8F7",
"!#	c #FCF6F5",
"~#	c #F0EFF1",
"{#	c #EAEAEF",
"]#	c #E7E6ED",
"^#	c #EEEAED",
"/#	c #EEE6DE",
"(#	c #89A3D1",
"_#	c #0C50CE",
":#	c #0032A9",
"<#	c #5C99EB",
"[#	c #C2E0FF",
"}#	c #71ACE7",
"|#	c #FAF9F9",
"1#	c #F2F1F5",
"2#	c #F5F2F3",
"3#	c #F8F1E8",
"4#	c #AFC1DA",
"5#	c #1A61D6",
"6#	c #0040BE",
"7#	c #4089EB",
"8#	c #D9EBFF",
"9#	c #72ACE5",
"0#	c #FBFBFB",
"a#	c #FDFBFB",
"b#	c #FFFAF3",
"c#	c #D1DBE6",
"d#	c #2F74DB",
"e#	c #024FD1",
"f#	c #97BAE9",
"g#	c #8DBCEB",
"h#	c #F0F2F1",
"i#	c #458AE3",
"j#	c #0B5EDD",
"k#	c #5F9CEE",
"l#	c #B6D5F3",
"m#	c #FFFFFD",
"n#	c #65A3ED",
"o#	c #166DE7",
"p#	c #5E9FF6",
"q#	c #74B1EF",
"r#	c #237DEE",
"                                                                ",
"                                    .                           ",
"                                  + @ #                         ",
"                                $ % & @                         ",
"                              * = - ; @ >                       ",
"                            , ' ) ! ~ { @ ]                     ",
"                          * @ ^ / ( _ : < [ }                   ",
"              | 1       2 @ 3 4 5 ( { 6 7 @ 8       9 0         ",
"        a b c d e f g h @ h 3 i 5 j k l m n o p q r s t         ",
"    u v @ w x y z A B @ C D E F G H I J K L M N O P Q R         ",
"  S @ T U V W y X Y @ Z ` h E  ...+.@.#.$.%.&.*.=.-.;.>.        ",
"    ,.'.U ).!.~.{.@ @ ].` ^./.(._.:.<.[.}.|.1.2.3.4.5.6.        ",
"    7.8.9.0.a.b.@ @ c.].d.e.f.g.h.i.j.k.l.m.n.o.p.q.r.s.        ",
"    t.@ u.v.w.x.y.@ z.A.B.B.C.D.E.F.G.H.I.J.K.L.M.N.O.          ",
"      P.Q.W R.S.T.@ @ U.V.W.X.Y.i.Z.`. +.+++@+#+$+%+&+          ",
"      *+=+-+;+>+,+'+)+!+~+{+]+^+/+(+_+:+<+[+}+|+1+2+3+          ",
"      4+@ 5+6+7+8+9+@ 0+a+b+c+d+e+f+g+h+i+j+k+l+m+n+o+          ",
"        p+5+q+r+s+t+u+v+w+x+y+z+A+B+C+D+E+F+G+H+I+J+O.          ",
"        K+L+M+N+O+P+Q+R+S+T+U+V+W+X+Y+Z+`+ @.@+@@@#@$@          ",
"        %@&@*@=@-@;@>@,@'@)@!@~@{@]@^@/@(@_@:@<@[@}@|@          ",
"          1@2@3@4@5@6@7@8@9@0@a@b@c@d@e@f@g@h@i@j@k@            ",
"          l@m@n@o@p@q@r@s@t@u@v@w@x@y@z@A@B@C@D@E@              ",
"          F@G@H@I@J@K@L@M@N@O@P@Q@R@S@T@U@V@W@                  ",
"            X@Y@Z@`@ #.#+#@###$#%#&#*#=#-#                      ",
"            ;#>#,#'#)#!#~#{#]#^#/#(#_#:#                        ",
"            <#[#}#@ |#E 1#2#3#4#5#6#                            ",
"            7#8#9#@ 0#a#b#c#d#e#                                ",
"              f#g#@ B.h#i#j#                                    ",
"              k#l#m#n#o#                                        ",
"              p#q#r#                                            ",
"                                                                ",
"                                                                "};
