/* XPM */
static char *TBgv[]={
"40 34 6 1",
"# c #000000",
"c c #808080",
"d c #a0a0a0",
"a c #c3c3c3",
". c Gray75 s backgroundToolBarColor",
"b c #ffffff",
"........................................",
"........................................",
"..................######................",
"................##abbbba##..............",
"...............#abbbbbbbba#.............",
"..............#abbbbbbbbbba#............",
"..............#bbbbbbbbbbbb#............",
".............#abbbbbbbbbbbba#...........",
".............#bba##abba##abb#...........",
"..........####bb####bb####bb#...........",
".........#ccc#bba##abba##abb####........",
"........#cbbbabbbbbbbbbbbbbb#aba#.......",
"........#cbbbbbbbbbbbbbbbbbbabbbc#......",
"........#ccbbbbbbbbbbbbbbbbbbbbbc#......",
".........##cbbbbbbbbbbbbbbbbbbccc#......",
"...........#cbbbbbbbbbbbbbbbbc###.......",
"...........#ccbbbbbbbbbbbbbbc#..........",
"............#cbbbbbbbbbbbbbbc#..........",
"............#cbbbbbbbbbbbbbbc#..........",
"............#cbbbbbbbbbbbbbbac#.........",
"............#cbbbbbbbbbbbbbbac#.........",
"............#cbbbbbbbbbbbbbbbac#........",
"............#cbbbbbbbbbbbbbbbbac#.......",
"...........#cabbbbaabbbbbbccbbbac#......",
"...........#cbbbbbccabbbba#cabbbac#.....",
"..........#cabbbbb#cabbbba#cabbbac#.....",
".........#ccbbbbba#caaaaac#caaaaac#.....",
".........#cdbbbaa###ccccc###ccccc#......",
".........#cddddcc#..#####...##cc#.......",
".........##cccc##.............##........",
"...........####.........................",
"........................................",
"........................................",
"........................................"};
