/* XPM */
static char *TBpdflatex[]={
"32 32 106 2",
".# c #000000",
".2 c #010101",
"#A c #020202",
".R c #0a0a0a",
".f c #140000",
".T c #141414",
".g c #151613",
".A c #1f0000",
"#F c #22231f",
"#g c #23241f",
".a c #232420",
".Q c #280000",
".N c #282828",
".d c #290000",
"#u c #292929",
".I c #2a2b26",
"#k c #323232",
".j c #330000",
".S c #333333",
".G c #383933",
".9 c #383a32",
"#b c #383a33",
".4 c #3d3d3d",
"#I c #3e4039",
"#K c #3f413a",
"#H c #434441",
"#o c #444541",
"#J c #444542",
".X c #454642",
"#t c #46473f",
"#q c #46483f",
".z c #464840",
"#y c #505050",
".o c #510000",
".M c #525252",
"#C c #53564c",
"#n c #565750",
"#m c #565851",
"#c c #565852",
".Y c #575851",
".L c #5b0000",
".W c #5b5b5b",
"#f c #5b5d52",
".F c #5b5d53",
"#. c #5b5e52",
".P c #5b5e53",
"#x c #5c5c5c",
".x c #650000",
".0 c #656565",
".e c #660000",
"#L c #666664",
"## c #666666",
"#G c #666764",
"#N c #666863",
"#h c #676764",
"#D c #676a60",
".c c #696c5f",
"#v c #696c60",
".q c #707365",
".J c #777a6c",
"#p c #777b6c",
".u c #790000",
".k c #7a0000",
"#r c #7a7a7a",
"#M c #838383",
".K c #850000",
".U c #858585",
"#e c #8b8f7f",
".h c #8c907f",
".m c #8e0000",
"#l c #8e8e8e",
".p c #939785",
".D c #980000",
".3 c #989898",
".r c #990000",
".5 c #999999",
".y c #9a9e8c",
".b c #a1a592",
".v c #a20000",
"#B c #a3a3a3",
".Z c #a8ad98",
".n c #ad0000",
".6 c #adadad",
".O c #aeb39e",
".C c #c10000",
".7 c #c1c1c1",
"#E c #c2c2c2",
"#s c #cacaca",
".t c #cb0000",
".1 c #cbcbcb",
".l c #cc0000",
"Qt c Gray75 s backgroundToolBarColor",
".w c #d50000",
"#j c #d5d5d5",
".B c #d60000",
"#d c #d6d6d6",
".H c #e00000",
"#w c #e0e0e0",
".8 c #eaeaea",
"#i c #f4f4f4",
".E c #fd0000",
"#z c #fdfdfd",
".s c #fe0000",
"#a c #fefefe",
".i c #ff0000",
".V c #ffffff",
"QtQtQtQtQtQtQtQt.#.#.#.#.aQtQtQtQtQtQtQtQtQtQtQtQtQtQtQtQtQtQtQt",
"QtQtQtQt.b.c.c.c.#.d.e.f.g.c.c.cQtQtQtQtQtQtQtQtQtQtQtQtQtQtQtQt",
"QtQtQtQt.h.#.#.#.#.e.i.j.#.#.#.#QtQtQtQtQtQtQtQtQtQtQtQtQtQtQtQt",
"QtQtQtQt.h.#.k.l.l.m.j.n.l.l.o.#QtQtQtQtQtQtQtQtQtQtQtQtQtQtQtQt",
"QtQtQt.p.q.#.r.s.t.u.#.v.w.i.x.#.h.yQtQtQtQtQtQtQtQtQtQtQtQtQtQt",
"QtQtQt.a.#.#.r.s.#.#.#.#.j.i.x.#.#.zQtQtQtQtQtQtQtQtQtQtQtQtQtQt",
"QtQtQt.a.A.r.B.s.#.#.#.k.n.i.C.D.#.zQtQtQtQtQtQtQtQtQtQtQtQtQtQt",
"QtQtQt.a.j.s.s.s.#.#.#.l.i.i.s.E.#.zQtQtQtQtQtQtQtQtQtQtQtQtQtQt",
"QtQtQt.a.#.#.r.i.i.D.#.l.i.i.x.#.#.zQtQtQtQtQtQtQtQtQtQtQtQtQtQt",
"QtQtQt.F.G.#.r.i.i.C.e.H.i.i.x.#.#.I.c.c.JQtQtQtQtQtQtQtQtQtQtQt",
"QtQtQtQt.h.#.r.i.i.i.i.i.i.i.x.#.#.#.#.#.aQtQtQtQtQtQtQtQtQtQtQt",
"QtQtQtQt.h.#.A.j.j.K.i.L.j.j.f.#.#.MQt.N.aQtQt.O.a.PQtQtQtQtQtQt",
"QtQtQtQt.p.a.a.a.#.o.t.Q.R.S.T.#.S.U.V.W.X.h.h.h.S.Y.h.ZQtQtQtQt",
"QtQtQtQtQtQtQtQt.#.#.#.#.S.V.0.#.V.V.V.V.1.#.#.2.V.3.#.hQtQtQtQt",
"QtQtQtQtQtQtQtQt.#.4.5.5.6.V.7.5.V.V.V.V.8.5.5.5.V.3.#.9#.QtQtQt",
"QtQtQtQtQtQtQtQt.####a#a.V.V.V#a#a#a#a#a#a.V.V.V.V.3.#.#.aQtQtQt",
"QtQtQtQtQtQtQtQtQt.c.#Qt.V.V.V#a.#.#.#.#.S.V.V.V.V.3.#.hQtQtQtQt",
"QtQtQtQtQtQtQtQtQt.c.#Qt.V.V.7.3##.4.##b#c.3#d.V.V.3.#.hQtQtQtQt",
"QtQtQtQtQtQtQtQtQt.c.#Qt.V.V.0.#.V.3.#.h#e.#.5.V.V.3.#.hQtQtQtQt",
"QtQtQtQtQtQt#f#g#g#hQt#i#j#k#l.1#k#m.hQtQt.h#n#k.V.8Qt#o#g#g#pQt",
"QtQtQtQtQtQt#q.#.S.U.V.V.1.##r#s.a.PQtQtQtQt#t.2.V.V.V.W#u.##vQt",
"QtQtQtQtQtQt#q.#.V.V.V.V.1.#.#.#QtQtQtQtQtQt#t.2.V.V.V.V.1.##vQt",
"QtQtQtQtQtQt#q.#.0.0.0#w.1.##x.5#t.qQtQtQtQt#t.2.V.7.0.0#y.##vQt",
"QtQtQtQtQtQt#q.#.#.#.#QtQt.2.5#z.2.zQtQtQtQt#q#A.V.3.#.#.#.##vQt",
"QtQtQtQtQtQtQtQtQt.c.#Qt.V.V.0.#.V.3.#.h#e.#.5.V.V.3.#.hQtQtQtQt",
"QtQtQtQtQtQtQtQtQt.c.#Qt.V.V#B##.3.W.##C#D###E.V.V.3.#.hQtQtQtQt",
"QtQtQtQtQtQtQtQtQt.c.#Qt.V.V.V#a.#.#.#.#.S.V.V.V.V.3.#.hQtQtQtQt",
"QtQtQtQtQtQtQtQt#F#GQt#i.V.V.V#aQtQtQtQt#d.V.V.V.V.8Qt#H#IQtQtQt",
"QtQtQtQtQtQtQtQt.a#G.1#i#i.1.1.1.V.V.V.V#i.1.1.1.V.8.1#J#KQtQtQt",
"QtQtQtQtQtQtQtQtQt.c.#Qt.1.#.#.#.V.V.V.V.1.#.#.2.V.3.#.hQtQtQtQt",
"QtQtQtQtQtQtQtQtQt.p#v#L#L#v#v#v.0#B.V#M#L#v#v#v.0#N#v.bQtQtQtQt",
"QtQtQtQtQtQtQtQtQtQtQt.a.aQtQtQt.###.V#k.aQtQtQt.#.zQtQtQtQtQtQt"};
