/* XPM */
static char * mail_cap_up_xpm[] = {
"32 32 228 2",
"  	c Gray75 s backgroundToolBarColor",
". 	c #8F8FBB",
"+ 	c #8E8EBA",
"@ 	c #9494BE",
"# 	c #9292BD",
"$ 	c #9191BC",
"% 	c #ABABCC",
"& 	c #7979A2",
"* 	c #9696BE",
"= 	c #9696BF",
"- 	c #9393BE",
"; 	c #B9B9D6",
"> 	c #EDEDF4",
", 	c #DADAE9",
"' 	c #B8B8D5",
") 	c #8686B3",
"! 	c #9999C1",
"~ 	c #9999C2",
"{ 	c #9D9DC5",
"] 	c #C9C9E0",
"^ 	c #F0F0F6",
"/ 	c #FBFBFD",
"( 	c #F9F9FB",
"_ 	c #D3D3E5",
": 	c #E6E6F0",
"< 	c #8686B5",
"[ 	c #616185",
"} 	c #9C9CC3",
"| 	c #9C9CC4",
"1 	c #A6A6CA",
"2 	c #CACAE0",
"3 	c #F8F8FA",
"4 	c #FEFEFE",
"5 	c #FDFDFE",
"6 	c #FAFAFC",
"7 	c #D2D2E4",
"8 	c #F2F2F7",
"9 	c #9E9EC5",
"0 	c #7C7CAD",
"a 	c #9F9FC5",
"b 	c #9F9FC6",
"c 	c #A9A9CC",
"d 	c #D9D9E9",
"e 	c #CBCBE0",
"f 	c #7F7FB1",
"g 	c #A3A3C8",
"h 	c #A2A2C7",
"i 	c #B7B7D5",
"j 	c #FCFCFE",
"k 	c #FAFAFB",
"l 	c #F7F7FA",
"m 	c #DBDBE9",
"n 	c #DDDDEA",
"o 	c #EFEFF6",
"p 	c #EBEBF4",
"q 	c #8B8BB8",
"r 	c #6C6C98",
"s 	c #A7A7CA",
"t 	c #A5A5CA",
"u 	c #BABAD6",
"v 	c #E7E7F1",
"w 	c #FBFBFC",
"x 	c #F5F5FA",
"y 	c #CACADF",
"z 	c #EDEDF5",
"A 	c #EAEAF3",
"B 	c #7979AD",
"C 	c #ACACCC",
"D 	c #AAAACB",
"E 	c #C7C7DE",
"F 	c #EEEEF5",
"G 	c #F3F3F8",
"H 	c #B4B4D1",
"I 	c #EEEEF6",
"J 	c #EBEBF3",
"K 	c #E9E9F2",
"L 	c #DFDFED",
"M 	c #7E7EB0",
"N 	c #60608B",
"O 	c #AEAECE",
"P 	c #ADADCE",
"Q 	c #ACACCD",
"R 	c #C9C9DF",
"S 	c #F4F4F9",
"T 	c #B2B2D0",
"U 	c #E7E7F2",
"V 	c #E5E5F0",
"W 	c #7171A6",
"X 	c #B1B1D1",
"Y 	c #D5D5E6",
"Z 	c #DCDCE9",
"` 	c #BFBFD8",
" .	c #E8E8F2",
"..	c #E3E3EE",
"+.	c #D2D2E5",
"@.	c #7272A7",
"#.	c #53537C",
"$.	c #BFBFD9",
"%.	c #E1E1ED",
"&.	c #E4E4EE",
"*.	c #F1F1F7",
"=.	c #CBCBDF",
"-.	c #C8C8DD",
";.	c #E4E4EF",
">.	c #E1E1EE",
",.	c #DEDEEC",
"'.	c #8A8AB8",
").	c #68689B",
"!.	c #A4A4C3",
"~.	c #D6D6E6",
"{.	c #CDCDE0",
"].	c #E0E0ED",
"^.	c #DDDDEB",
"/.	c #6C6CA4",
"(.	c #C0C0D9",
"_.	c #C4C4DB",
":.	c #DEDEEB",
"<.	c #F1F1F6",
"[.	c #9E9EC2",
"}.	c #E6E6F1",
"|.	c #E0E0EE",
"1.	c #DBDBEA",
"2.	c #7777AB",
"3.	c #5B5B8D",
"4.	c #9D9DBF",
"5.	c #AFAFD0",
"6.	c #C2C2D9",
"7.	c #B1B1CF",
"8.	c #C3C3DA",
"9.	c #9D9DC1",
"0.	c #DCDCEB",
"a.	c #D7D7E8",
"b.	c #A4A4C8",
"c.	c #66669F",
"d.	c #EAEAF2",
"e.	c #ABABCB",
"f.	c #A8A8C8",
"g.	c #BDBDD6",
"h.	c #D4D4E5",
"i.	c #A4A4C7",
"j.	c #DDDDEC",
"k.	c #D5D5E7",
"l.	c #CBCBE1",
"m.	c #6A6AA3",
"n.	c #50507F",
"o.	c #9C9CC1",
"p.	c #B6B6D3",
"q.	c #A1A1C5",
"r.	c #B3B3D0",
"s.	c #B6B6D2",
"t.	c #D0D0E4",
"u.	c #D4D4E6",
"v.	c #DCDCEA",
"w.	c #D6D6E8",
"x.	c #D1D1E5",
"y.	c #5E5E99",
"z.	c #9898BE",
"A.	c #9494BB",
"B.	c #C6C6DC",
"C.	c #5E5E9A",
"D.	c #454571",
"E.	c #9999C0",
"F.	c #BDBDD8",
"G.	c #FCFCFD",
"H.	c #CFCFE3",
"I.	c #C9C9DE",
"J.	c #CECEE2",
"K.	c #C5C5DD",
"L.	c #C2C2DB",
"M.	c #7676AB",
"N.	c #55558F",
"O.	c #8D8DB2",
"P.	c #C8C8DF",
"Q.	c #C4C4DC",
"R.	c #7979AC",
"S.	c #585895",
"T.	c #CDCDE2",
"U.	c #C6C6DE",
"V.	c #8C8CB9",
"W.	c #5B5B97",
"X.	c #585891",
"Y.	c #484870",
"Z.	c #8989B3",
"`.	c #9D9DC4",
" +	c #64649E",
".+	c #5A5A95",
"++	c #464674",
"@+	c #8D8DBA",
"#+	c #F2F2F8",
"$+	c #AEAECF",
"%+	c #6E6EA4",
"&+	c #4E4E81",
"*+	c #8888B5",
"=+	c #D6D6E7",
"-+	c #C0C0DA",
";+	c #61619C",
">+	c #56568D",
",+	c #8787B6",
"'+	c #64649D",
")+	c #5E5E95",
"!+	c #3B3B61",
"~+	c #8585B3",
"{+	c #A0A0C6",
"]+	c #6D6DA4",
"^+	c #62629B",
"/+	c #4D4D7A",
"(+	c #7A7AA8",
"_+	c #8888B7",
":+	c #B2B2D1",
"<+	c #6767A0",
"[+	c #525281",
"}+	c #C5C5DC",
"|+	c #6A6AA2",
"1+	c #5F5F92",
"2+	c #7777A7",
"3+	c #8989B7",
"4+	c #646499",
"5+	c #AAAACC",
"6+	c #6F6FA6",
"7+	c #6B6BA1",
"8+	c #49496F",
"9+	c #7575A9",
"0+	c #8282B3",
"a+	c #7A7AAD",
"b+	c #7070A6",
"c+	c #555580",
"d+	c #7373A8",
"e+	c #61618F",
"                                          . +                   ",
"                                    @ # $ % + &                 ",
"                                * = - ; > , ' )                 ",
"                            ! ~ { ] ^ / ( _ : < [               ",
"                        } | 1 2 3 4 5 6 3 7 8 9 0               ",
"                    a b c d 4 4 4 5 / ( ^ 2 ^ e f               ",
"                g h i , 4 4 4 4 4 j k l m n o p q r             ",
"            s t u v 4 4 4 4 4 4 5 w 3 x y : z A ' B             ",
"      C D c E F 4 4 4 4 4 4 4 4 / ( l G H I J K L M N           ",
"  O P Q R G 4 4 4 4 4 4 4 4 4 5 6 3 S 8 T > K U V { W           ",
"X X Y ( 4 4 4 4 4 4 4 4 4 4 5 / ( x G Z ` A  .: ..+.@.#.        ",
"O $.%.&.l 4 4 4 4 4 4 4 4 4 j k l S *.=.-.K v ;.>.,.'.).        ",
"!.% ( l ~.{.].x 4 4 4 4 4 5 w 3 x 8 ^ H Y  .V ..L ^.' /.        ",
"  c +.4 4 6 Z (._.:.S 4 4 / ( l G <.o [.;.}.;.|.,.1.d 2.3.      ",
"  4.5.4 4 4 4 4 ..6.7.8.:.S 3 S 8 o >.9.U V >.L 0., a.b.c.      ",
"    h m 4 4 4 4 4 4 d.6.e.f.g.h.J F e i.,...|.j.1.d k.l.m.n.    ",
"    o.p.4 4 4 4 4 4 4 j o _.q.[.9.r.e.s.t.e u.v., w.u.x.'.y.    ",
"      } 8 4 4 4 4 4 5 w 3 x L D 9.z.A.B...0.t.E 2 _ +.t.$.C.D.  ",
"      E.F.4 4 4 4 4 G.( l G k.H.J I.9.J.|.,.1.d t.K.L.2 l.M.N.  ",
"      O.} 3 4 4 4 5 6 3 S ^ P.,.d.U V >.L 0., a.u.+.J.Q.X R.S.  ",
"        - J.4 4 5 / ( x G >.T.A  .: ..|.j.1.d k._ t.U.V.W.X.Y.  ",
"        Z.`.4 4 j 6 l S *.k., K v ;.>.,.v., w.u.x.{  +.+++      ",
"          @+, 5 w 3 x #+F ]  . .V ..L ^.m a.Y $+%+C.&+          ",
"          *+t G.( l G <.>.=+K }.;.|.,.v.d -+M ;+>+              ",
"            ,+J 3 S 8 o k.: U V >.L 0.+.. '+)+!+                ",
"            ~+p.x G ^ p +. .}...|.=+{+]+^+/+                    ",
"            (+_+> *.o ].>.v ;.>.:+2.<+[+                        ",
"              f K.^ F a. .V }+_+|+1+                            ",
"              2+3+o  .,.a.# ]+4+                                ",
"                R.H.a.5+6+7+8+                                  ",
"                9+0+a+b+c+                                      ",
"                  d+e+                                          "};
