/* XPM */
static char * print_cap_up_xpm[] = {
"32 32 374 2",
"  	c Gray75 s backgroundToolBarColor",
". 	c #768ACE",
"+ 	c #9FB0EA",
"@ 	c #8E9FD7",
"# 	c #C0C8E6",
"$ 	c #FFFFFF",
"% 	c #7B8DD1",
"& 	c #BCC8EF",
"* 	c #B6BFE2",
"= 	c #F0F1F8",
"- 	c #F1F0F5",
"; 	c #EBE9F0",
"> 	c #C2CBE8",
", 	c #DBE1F1",
"' 	c #C2C8DD",
") 	c #DEE1EC",
"! 	c #F4F4F7",
"~ 	c #EDEDF4",
"{ 	c #E9E9F1",
"] 	c #E5E4EE",
"^ 	c #FFFFFD",
"/ 	c #7D93E0",
"( 	c #E4E6EC",
"_ 	c #FEFDFE",
": 	c #F9F9FB",
"< 	c #F7F7FA",
"[ 	c #F1F1F6",
"} 	c #EEEEF5",
"| 	c #EAEAF2",
"1 	c #E4E4EE",
"2 	c #EDEBF1",
"3 	c #9EACE0",
"4 	c #F7F7F8",
"5 	c #FEFEFF",
"6 	c #FCFCFD",
"7 	c #F8F8FA",
"8 	c #E2E1EC",
"9 	c #F4F5F9",
"0 	c #768BD9",
"a 	c #E6E7ED",
"b 	c #DFDFEC",
"c 	c #F6F4F6",
"d 	c #8294D6",
"e 	c #E0E1ED",
"f 	c #E0E0EC",
"g 	c #DADEF0",
"h 	c #EDEEF3",
"i 	c #DEDDEB",
"j 	c #FFFEFD",
"k 	c #7588D1",
"l 	c #C8CCDB",
"m 	c #DEDEEB",
"n 	c #EAE7EE",
"o 	c #B1B7DF",
"p 	c #626BA9",
"q 	c #B0B9D7",
"r 	c #676DA5",
"s 	c #767EBB",
"t 	c #D0D4E5",
"u 	c #FEFEFE",
"v 	c #E2E0EB",
"w 	c #E5DFE9",
"x 	c #E8E5EF",
"y 	c #C4E2FF",
"z 	c #8EDBFF",
"A 	c #2C75E3",
"B 	c #9BDBFF",
"C 	c #E8FCFF",
"D 	c #9FA1C2",
"E 	c #6C75B0",
"F 	c #D0D3E6",
"G 	c #EEEEF4",
"H 	c #ECEAF1",
"I 	c #EBE6EC",
"J 	c #E5E4F3",
"K 	c #BCDAFB",
"L 	c #88CFFF",
"M 	c #72CAFF",
"N 	c #57A5F5",
"O 	c #2253CB",
"P 	c #0C3DC2",
"Q 	c #1463DF",
"R 	c #C9F2FF",
"S 	c #E4E3E8",
"T 	c #566299",
"U 	c #C9CFE9",
"V 	c #FAF9FB",
"W 	c #F8F7FA",
"X 	c #F4F2F6",
"Y 	c #F5F0F3",
"Z 	c #E6E8F8",
"` 	c #BDDBFA",
" .	c #98D8FF",
"..	c #8AD6FF",
"+.	c #73BDFB",
"@.	c #4C8CE6",
"#.	c #2D60D1",
"$.	c #2052CC",
"%.	c #0838C0",
"&.	c #034CD2",
"*.	c #79BBFB",
"=.	c #F1FEFF",
"-.	c #CED1E4",
";.	c #5D68A1",
">.	c #E0E2EC",
",.	c #FFFAF9",
"'.	c #E5EAFB",
").	c #C1DCFC",
"!.	c #ACE4FF",
"~.	c #A2E1FF",
"{.	c #80C2FA",
"].	c #5999EB",
"^.	c #427BDD",
"/.	c #336BD7",
"(.	c #1F55CF",
"_.	c #2F79E3",
":.	c #93CEFF",
"<.	c #F0FFFF",
"[.	c #FEFCFF",
"}.	c #7A83B0",
"|.	c #A9AFCE",
"1.	c #EFF1FF",
"2.	c #C6DFFC",
"3.	c #C0EEFF",
"4.	c #B9EAFF",
"5.	c #8CCCFC",
"6.	c #63A6F1",
"7.	c #5897EA",
"8.	c #4887E3",
"9.	c #3774DC",
"0.	c #4B95EE",
"a.	c #A3D6FF",
"b.	c #F5FFFF",
"c.	c #FBFCFF",
"d.	c #F2F4FF",
"e.	c #F3F5FF",
"f.	c #DAE0F7",
"g.	c #5D669E",
"h.	c #7988CA",
"i.	c #ACB8E0",
"j.	c #D9EFFF",
"k.	c #D7FFFF",
"l.	c #CCF5FF",
"m.	c #BDEBFF",
"n.	c #7FC7FF",
"o.	c #6DB3F8",
"p.	c #5EA4F0",
"q.	c #4D92EA",
"r.	c #66ABF4",
"s.	c #B0DAFF",
"t.	c #F8FDFF",
"u.	c #FCFDFF",
"v.	c #F6F6FF",
"w.	c #EEF2FF",
"x.	c #EBEFFF",
"y.	c #FEFFFF",
"z.	c #535D92",
"A.	c #909FD5",
"B.	c #D9D9FF",
"C.	c #FEFBFF",
"D.	c #EAEEFF",
"E.	c #CEEFFF",
"F.	c #C7F3FF",
"G.	c #81C9FD",
"H.	c #72BEFD",
"I.	c #66B0F6",
"J.	c #7FBCFA",
"K.	c #BEDFFF",
"L.	c #FAFBFF",
"M.	c #F7FAFF",
"N.	c #F4F6FF",
"O.	c #F1F6FF",
"P.	c #B3B7DA",
"Q.	c #4D5587",
"R.	c #90A2E8",
"S.	c #BBBDFB",
"T.	c #BABCFF",
"U.	c #B3B6FF",
"V.	c #CECFFF",
"W.	c #F8FBFF",
"X.	c #BDE5FF",
"Y.	c #76C5FF",
"Z.	c #95CBFD",
"`.	c #C7E0FF",
" +	c #FDFBFF",
".+	c #FDFEFF",
"++	c #FDFDFF",
"@+	c #FBFDFF",
"#+	c #A9AFCF",
"$+	c #6E72A3",
"%+	c #ABC2DC",
"&+	c #8488BA",
"*+	c #8FA0E4",
"=+	c #8693CF",
"-+	c #BEBFFE",
";+	c #C2C5FF",
">+	c #BBBEFF",
",+	c #E2E0FF",
"'+	c #F0F4FF",
")+	c #CFE2FF",
"!+	c #AEB2CE",
"~+	c #6E76A0",
"{+	c #BBC1DF",
"]+	c #FBF8FF",
"^+	c #52D31C",
"/+	c #A5A3D6",
"(+	c #8B9EE0",
"_+	c #C8CBFF",
":+	c #818CC9",
"<+	c #BBC0F7",
"[+	c #C9CAFF",
"}+	c #BFC2FF",
"|+	c #B0B5CE",
"1+	c #7179A2",
"2+	c #C5C9E3",
"3+	c #DCE1F5",
"4+	c #73727B",
"5+	c #EBF5FF",
"6+	c #767BAE",
"7+	c #8899DC",
"8+	c #CCCFFF",
"9+	c #CCCDFF",
"0+	c #838EC8",
"a+	c #B9BDF2",
"b+	c #CDD0FF",
"c+	c #D8D9FF",
"d+	c #B1B5CC",
"e+	c #777DA5",
"f+	c #CFD2E5",
"g+	c #E4E7F4",
"h+	c #696869",
"i+	c #5F657F",
"j+	c #5A6FB9",
"k+	c #C1CCFF",
"l+	c #757CA8",
"m+	c #8697D9",
"n+	c #CFCFFF",
"o+	c #CDCFFF",
"p+	c #D5D6FF",
"q+	c #8A94CA",
"r+	c #B3B8E9",
"s+	c #D0D2FF",
"t+	c #AFB4CD",
"u+	c #787FA9",
"v+	c #D9DBE7",
"w+	c #EFF0F7",
"x+	c #7C7C7C",
"y+	c #656C7F",
"z+	c #8F9ED3",
"A+	c #EBEDFD",
"B+	c #9FB0E5",
"C+	c #5B6CAF",
"D+	c #8595D8",
"E+	c #D6D7FF",
"F+	c #D2D4FF",
"G+	c #DBDCFF",
"H+	c #979ED1",
"I+	c #A5ADDE",
"J+	c #F7F6FF",
"K+	c #ACB1CD",
"L+	c #7982AC",
"M+	c #DADCE8",
"N+	c #FBFBFB",
"O+	c #8D8D8E",
"P+	c #6F7485",
"Q+	c #9CA8CF",
"R+	c #F1F4FE",
"S+	c #FBFAFC",
"T+	c #EBEAF1",
"U+	c #E3E3ED",
"V+	c #FEFCFB",
"W+	c #C3CAE4",
"X+	c #6278CA",
"Y+	c #8495D9",
"Z+	c #B2B8E0",
"`+	c #DEDFFF",
" @	c #D6D8FF",
".@	c #D7D9FF",
"+@	c #E1E2FF",
"@@	c #A5ABD9",
"#@	c #A7ABD7",
"$@	c #AEB3CD",
"%@	c #7A83AE",
"&@	c #DDDFEB",
"*@	c #A0A09F",
"=@	c #7F818B",
"-@	c #ADB3CF",
";@	c #F7F8FF",
">@	c #F3F3F7",
",@	c #ECECF4",
"'@	c #E7E7F0",
")@	c #E3E3EE",
"!@	c #DEDEEA",
"~@	c #EEECF2",
"{@	c #FAFAFC",
"]@	c #667CCA",
"^@	c #6F7EBB",
"/@	c #A7AFD7",
"(@	c #E7E8FF",
"_@	c #DDDDFF",
":@	c #DDDFFF",
"<@	c #E5E5FF",
"[@	c #B8BDE2",
"}@	c #F3F3F5",
"|@	c #FFFFFE",
"1@	c #AFAEAE",
"2@	c #8F9094",
"3@	c #BCC0D0",
"4@	c #FBFBFD",
"5@	c #F4F4F9",
"6@	c #EFEFF5",
"7@	c #E8E8F0",
"8@	c #E4E4EF",
"9@	c #DCDCEA",
"0@	c #E3E1EC",
"a@	c #7488D4",
"b@	c #6D7BB8",
"c@	c #9DA6CD",
"d@	c #EFEEFF",
"e@	c #E2E4FF",
"f@	c #E2E3FF",
"g@	c #E8E9FF",
"h@	c #A7A7A7",
"i@	c #D1D2D3",
"j@	c #F8F8FB",
"k@	c #F0F0F5",
"l@	c #E2E2EE",
"m@	c #DFDEEA",
"n@	c #F6F4F7",
"o@	c #FFFEFF",
"p@	c #90A3E0",
"q@	c #7D8FD2",
"r@	c #6A78B4",
"s@	c #8F99C2",
"t@	c #EAEBFF",
"u@	c #9B9B9B",
"v@	c #E3E2E4",
"w@	c #FDFDFE",
"x@	c #EBEBF3",
"y@	c #E8E7F0",
"z@	c #F3F2F6",
"A@	c #9DADE2",
"B@	c #7B90D8",
"C@	c #6470AB",
"D@	c #838DB8",
"E@	c #FCFCFF",
"F@	c #F3F4FF",
"G@	c #989791",
"H@	c #84868B",
"I@	c #D9DCE4",
"J@	c #F3F3F8",
"K@	c #F5F4F8",
"L@	c #B3BFE8",
"M@	c #798FDA",
"N@	c #5D69A2",
"O@	c #7680AF",
"P@	c #B7BBD3",
"Q@	c #5D689A",
"R@	c #4E5990",
"S@	c #ECF0F7",
"T@	c #F3F4F9",
"U@	c #F9F9FC",
"V@	c #D2D9F0",
"W@	c #869ADB",
"X@	c #566199",
"Y@	c #717CAB",
"Z@	c #57629A",
"`@	c #E5EBF8",
" #	c #E2E7F3",
".#	c #EAEEF6",
"+#	c #9BABDD",
"@#	c #E3E8FA",
"##	c #B8C4E7",
"$#	c #8E9CC9",
"                        .                                       ",
"                  + @ # $ %                                     ",
"              & * = $ - ; >                                     ",
"        , ' ) $ $ ! ~ { ] ^ /                                   ",
"    $ ( _ $ $ : < [ } | 1 2 3                                   ",
"    4 $ $ 5 6 7 < [ } | 1 8 9 0                                 ",
"      a $ 5 6 7 < [ } | 1 b c d                                 ",
"      e $ 5 6 7 < [ } | 1 f 8 g                                 ",
"        h $ 6 7 < [ } | 1 f i j k                               ",
"        l $ 6 7 < [ } | 1 f m n o p q r s                       ",
"        t 6 u 7 < [ } | ] v w x y z A B C D E                   ",
"          F $ 7 < [ G H I J K L M N O P Q R S T                 ",
"          U $ V W X Y Z `  ...+.@.#.$.%.&.*.=.-.;.              ",
"            >.^ ,.'.).!.~.{.].^./.(._.:.<.$ [.$ }.              ",
"            |.1.2.3.4.5.6.7.8.9.0.a.b.$ $ c.d.e.f.g.            ",
"        h.i.j.k.l.m.n.o.p.q.r.s.t.$ $ $ u.v.w.x.y.z.            ",
"      A.B.C.D.E.F.G.H.I.J.K.L.$ $ $ $ $ M.e.N.O.P.Q.            ",
"    R.S.T.U.V.W.X.Y.Z.`. +$ $ $ $ $ $ .+++@+#+$+%+&+            ",
"    *+=+-+;+>+,+'+)+$ $ $ $ $ $ $ $ $ $ !+~+{+]+^+/+            ",
"    (+_+:+<+[+}+5 $ $ $ $ $ $ $ $ $ |+1+2+$ 3+4+5+6+            ",
"    7+8+9+0+a+b+c+$ $ $ $ $ $ $ d+e+f+$ g+h+i+j+k+l+            ",
"    m+n+o+p+q+r+s+$ $ $ $ $ t+u+v+$ w+x+y+z+A+$ B+C+            ",
"    D+E+s+F+G+H+I+J+$ $ K+L+M+$ N+O+P+Q+R+S+T+U+V+W+X+          ",
"    Y+Z+`+ @.@+@@@#@$@%@&@$ ^ *@=@-@;@$ >@,@'@)@!@~@{@]@        ",
"      ^@/@(@_@:@<@[@}@$ |@1@2@3@c.$ 4@5@6@,@7@8@m 9@0@$ a@      ",
"        b@c@d@e@f@g@$ $ h@i@$ $ $ {@j@5@k@,@'@l@m@n@o@p@q@      ",
"          r@s@J+g@t@$ $ u@v@$ $ w@: j@5@6@x@y@z@$ A@B@          ",
"            C@D@E@F@$ $ G@H@I@u.$ {@j@J@k@K@$ L@M@              ",
"              N@O@$ $ P@Q@R@  S@T@$ : U@$ V@W@                  ",
"                X@Y@Z@R@        `@ #$ .#+#                      ",
"                                  @###$#                        ",
"                                                                "};
