/* XPM */
static char * debug_cap_up_xpm[] = {
"32 32 256 2",
"  	c Gray75 s backgroundToolBarColor",
". 	c #161614",
"+ 	c #0E8E8C",
"@ 	c #868A8C",
"# 	c #82D6E4",
"$ 	c #BAC6C0",
"% 	c #BAE6EC",
"& 	c #C6D6D4",
"* 	c #9EAEA4",
"= 	c #D2CACF",
"- 	c #BEB2B4",
"; 	c #1E5654",
"> 	c #C2CECC",
", 	c #BABEBB",
"' 	c #525254",
") 	c #DAE2D4",
"! 	c #667274",
"~ 	c #D2D6D2",
"{ 	c #C6C6C4",
"] 	c #AAB6B4",
"^ 	c #C6BEC3",
"/ 	c #D6DEDC",
"( 	c #363634",
"_ 	c #9EDEE4",
": 	c #86A29C",
"< 	c #DECEDC",
"[ 	c #6E8274",
"} 	c #22CAC4",
"| 	c #DAD6D3",
"1 	c #D2D2D1",
"2 	c #CACECC",
"3 	c #D6F2F4",
"4 	c #52CADC",
"5 	c #C6EEF4",
"6 	c #BABEC4",
"7 	c #6ACEDC",
"8 	c #C6BAC4",
"9 	c #C6C6CC",
"0 	c #5E6264",
"a 	c #B2E2EC",
"b 	c #262626",
"c 	c #AEAEAC",
"d 	c #BABABB",
"e 	c #6E767C",
"f 	c #8E9294",
"g 	c #D2E2E4",
"h 	c #D2D6DC",
"i 	c #B2BEBC",
"j 	c #C2C6C1",
"k 	c #DACED4",
"l 	c #464644",
"m 	c #92DAE4",
"n 	c #D2CED1",
"o 	c #B2B6B4",
"p 	c #CAD2CF",
"q 	c #CADEDC",
"r 	c #C2BEBB",
"s 	c #D6EAEC",
"t 	c #9A9A9C",
"u 	c #E6F6FC",
"v 	c #CAD6D1",
"w 	c #C6D2C7",
"x 	c #565A54",
"y 	c #CEC2CC",
"z 	c #867E6C",
"A 	c #DADAD7",
"B 	c #DAD2D2",
"C 	c #5ECADC",
"D 	c #C2BEC4",
"E 	c #7ED2E4",
"F 	c #CEC6CC",
"G 	c #B2EAF4",
"H 	c #2E2E2C",
"I 	c #C2BABF",
"J 	c #B2BAB8",
"K 	c #C2E6EC",
"L 	c #D2DAD2",
"M 	c #CEC6C0",
"N 	c #C6C2C1",
"O 	c #B6B2B4",
"P 	c #767674",
"Q 	c #969291",
"R 	c #DEEEF4",
"S 	c #9EA2A4",
"T 	c #AAB2B0",
"U 	c #726E74",
"V 	c #AAE6EC",
"W 	c #CACED4",
"X 	c #E2F2F4",
"Y 	c #666A6C",
"Z 	c #B6E2EC",
"` 	c #AEB2B4",
" .	c #BABAC4",
"..	c #C2CAC2",
"+.	c #4A4E4C",
"@.	c #CADADC",
"#.	c #828684",
"$.	c #1E1E1C",
"%.	c #8E8A84",
"&.	c #8AD6E4",
"*.	c #BECAC2",
"=.	c #D2CADC",
"-.	c #C2B6BC",
";.	c #42564C",
">.	c #C2CED4",
",.	c #BEC2BC",
"'.	c #DEDED8",
").	c #3E3E3C",
"!.	c #A6E2EC",
"~.	c #D6D2DC",
"{.	c #CEEEF4",
"].	c #BAC2C4",
"^.	c #72D2DC",
"/.	c #C6CACC",
"(.	c #2E2A2C",
"_.	c #CAEAEC",
":.	c #D5DADC",
"<.	c #9ADEE7",
"[.	c #D6CEDC",
"}.	c #D6EEF4",
"|.	c #CED6DC",
"1.	c #5E5E5C",
"2.	c #B6BAC4",
"3.	c #C8C2CC",
"4.	c #BAEAEC",
"5.	c #A6AAA9",
"6.	c #D6CAD0",
"7.	c #BAB6B8",
"8.	c #BEBEBB",
"9.	c #2AA29C",
"0.	c #4ECAD4",
"a.	c #1A6A64",
"b.	c #969A9C",
"c.	c #6A7A94",
"d.	c #7A7E84",
"e.	c #4E5A5C",
"f.	c #A8A2A4",
"g.	c #7E7E7C",
"h.	c #6E6E6C",
"i.	c #222224",
"j.	c #666264",
"k.	c #EEFAFC",
"l.	c #969694",
"m.	c #DAE6E4",
"n.	c #1A1A1C",
"o.	c #C2DADC",
"p.	c #3A3A3C",
"q.	c #A0E2EC",
"r.	c #E2D2D4",
"s.	c #DAF6FC",
"t.	c #52CEDC",
"u.	c #AEE6EE",
"v.	c #2A2A2C",
"w.	c #4A4A4C",
"x.	c #585E5C",
"y.	c #2E322C",
"z.	c #C2EAEC",
"A.	c #797A7C",
"B.	c #727274",
"C.	c #424244",
"D.	c #D2F2F4",
"E.	c #AAAEAC",
"F.	c #A6A6AC",
"G.	c #7E827C",
"H.	c #8A8E8C",
"I.	c #565654",
"J.	c #C8CAC4",
"K.	c #6DD2DC",
"L.	c #929694",
"M.	c #96DEE4",
"N.	c #9E9E9C",
"O.	c #EAFAFC",
"P.	c #60CEDC",
"Q.	c #7BD6E4",
"R.	c #1A221C",
"S.	c #8DDAE4",
"T.	c #D2E6EC",
"U.	c #C2C2BB",
"V.	c #C2C2C5",
"W.	c #CECACE",
"X.	c #CECAC4",
"Y.	c #E2F6F5",
"Z.	c #8E8E8C",
"`.	c #524E4C",
" +	c #D2EAEC",
".+	c #B6E6EC",
"++	c #666664",
"@+	c #DAD6DC",
"#+	c #C2C6CC",
"$+	c #C6D2D4",
"%+	c #DAD2DC",
"&+	c #C2CACC",
"*+	c #BEC6C4",
"=+	c #C6CEC8",
"-+	c #D6D6D3",
";+	c #DADED9",
">+	c #DED6D4",
",+	c #D6D2D1",
"'+	c #CECECB",
")+	c #BEBEC6",
"!+	c #CABABC",
"~+	c #2A2624",
"{+	c #B2AEB0",
"]+	c #BEBABA",
"^+	c #727674",
"/+	c #D6D6DF",
"(+	c #D6CED3",
"_+	c #B6B6B9",
":+	c #CED2D1",
"<+	c #CED6D2",
"[+	c #5A5A5C",
"}+	c #DEDADA",
"|+	c #B6BAB8",
"1+	c #D6DAD4",
"2+	c #CAC2C4",
"3+	c #E2EEEC",
"4+	c #B2B2B0",
"5+	c #D2EEF0",
"6+	c #CACACD",
"7+	c #DAEEF1",
"8+	c #BEEAF2",
"9+	c #BEB6BC",
"0+	c #9A969C",
"a+	c #56CED8",
"b+	c #B2E6EC",
"c+	c #323234",
"d+	c #C6EAF4",
"e+	c #767270",
"f+	c #828284",
"g+	c #8A8A8C",
"h+	c #86D6E4",
"i+	c #CAC6C4",
"j+	c #AEB6B4",
"k+	c #3A3634",
"l+	c #DAF2F4",
"m+	c #6ECEDC",
"n+	c #CAC6CC",
"o+	c #626264",
"p+	c #929294",
"q+	c #B6BEBC",
"r+	c #96DAE4",
"s+	c #DAEAEC",
"t+	c #9E9A9C",
"u+	c #62CADC",
"v+	c #B6EAF4",
"w+	c #7A7674",
"x+	c #CECED4",
"y+	c #6A6A6C",
"z+	c #BEBAC4",
"A+	c #4E4E4C",
"B+	c #868684",
"C+	c #46564C",
"D+	c #C6CED4",
"E+	c #AAE2EC",
"F+	c #BEC2C4",
"G+	c #CEEAEC",
"|+_+d |+, _+d q+r , 8.8 r ,.I 8.8.j *.2+r j 3.*.../.i+.././.6+i+",
", |+j+7.o 7.d 8.r ]+, 7.I 6 )+6 I N 9 V.D V.V.6+=+#+J.9 N M { 6+",
"|+|+- 7.]+d d ,. .I *+8.8.8.j V.V.r > ].V.V.9 j 2+J.9 n+l.[+6+6+",
"- _+7.d d d q+]+]+8., U. .I ^ ,.*.^ F+{ ..3.j { w 6+J./.p+I.2 i+",
"|+|+|+d , , 8.D U.U.$ 8.,.*+,.l.[+$ j V.*+j !+*+2 i+M ..:+i+2 b.",
"_+, d ]+8.9+d V.9+c @ n.b b i.C.x.E.^ L.j /.J.y ^ 9 3.l.g+P '+n ",
"7.I ]+d I ,.,., `.( [+L.` |+T f+I.y.d.o+I.6+{ 9 V.6+N.p+g.B.g+:+",
"d q+|+, ]+]+d w+x T > 7+3 }. + +g S I.x.J.2+i+2+:+p+p+A.y+o+I.' ",
"I r |+8.d 7.y+I.D+3+u X 3 5 v+u.b+5 J v.o /.n+n+2 g+g.++I.' w.C.",
"8.q+8.,.]+t ( ` 3+u k.Y.D.8+!.q.q.a 5 L.;.P W.6+W P B.I.A+w.l p.",
"|+_+z+]+F+A.x.=+u u k.X 5 8+q.M.m <.% m.(.p.W.J.M n+[+' w.C.( :+",
"]+,.].j ].. p+s+Y.u Y.3 d+V q.&.Q.# r+s +.e+=+W.6+J.2 w.C.B.1 1 ",
" .8.^ 8.N i.o 7+s.D.{.5 .+_ S.Q.^.K.h+.+B+z 2 /.n 2 2 <+'+(+& W ",
"9+,.)+8.8.b i 7+5 4.4.u.q.S.E m+P.7 # u.N.++F w =+= 1 6.L ~ <+= ",
")+^ V...V.$.5. +z.E+!.r+S.Q.7 P.t.P.h+K B.c.6+'+1 W.p X.W n 1 ~ ",
"r ]+U.^ V.).P  +8+q.r+S.Q.7 P.t.0.K._ 7+c+: F =+p v ,+'+1 :+,+= ",
",.&+8.].N t A+w 4.<.S.E K.P.a+0.C E Z j+H O '+,+'+n = p k <+n (+",
"*.U.^ F+j 2.y.g+s a S.Q.m+7 a+^.# .+q A+[ W.n W.W n <+1 1 <+,+,+",
"r V.I l.[+D E.`.5.& Z _ S.h+h+<.a @.Y c+a.F.X.'+:+(+,+:+,+x+-+:+",
"j D ^ Z.' J.N @ v.A.o 3+_.b+K 3+] +.b 9.} w.T 1 = ,+1 1+F :+-+@+",
"U.F+*.i+=+J.Q ++w.p.b w.g.t h.y.$.x.; + ' P p., 1 ~ 1 :+(+1 | ~ ",
"z+*+Q g+P *./.o+U.{ F.g.I.w.e 0 x I.' c+C.I.w+C+5.1 1 | B ,+-+1 ",
"j N.p+g.B.f+9 '+6+M M J.g+g.++I.' w.C.F.. ).' P I.4+,+:.n @+1 }+",
"p+p+A.y+j.I.' J.=+^+= 2 P B.I.A+w.l p.1 |+p.p.' w+p.*+,+| -+k | ",
"g+g.++I.' w.C.6+g+p.J.X.=+[+' w.C.k+n (+6.5.p.).I.A.0 ` :+h ~./ ",
"P B.I.A+w.l p.W./.6+n+2 '+n+w.C.B.=+p = 1 6.z+. ).I.B.l c 1+k 1+",
"J.x ' w.C.( /.W.6+W 2 =+W.W.n :+'+:+n p -+-+~ ].y.p.I.k+O h @+) ",
"j 6+w.C.U X.2 6+=+2 :+X.1 v n+2 1 B '+:+(+6+~ 1 * v.b ! 6+A (+~.",
"*.6+J.J.9 J.J.6+2+6+'+/.J.6+n :+= x+,+n ,+1 :+-+-+F+F.8.%+:.:.@+",
"6+{ J.F =+3.6+6+'+:+6+1 <+'+x+:+:+[.:+:+1+| [.n | 1 A :+1+/ '.:.",
"=+2+2 l.[+F F 2 '+p 2 = W 2 k 1 n 1 ~ ~ ~ >+| :.}+/+:.%+}+>+'.;+",
"J.=+i+Z.x 6+:+p+6+W.W.1 v x+:+p n v (+<+~ -+1 A ,+1+@+>+A @+:.A "};
