/* XPM */
static char * cut_cap_up_xpm[] = {
"32 32 198 2",
"  	c Gray75 s backgroundToolBarColor",
". 	c #BDBDCA",
"+ 	c #C2C2CF",
"@ 	c #B6B6C5",
"# 	c #F1F1F4",
"$ 	c #D8D8E0",
"% 	c #A5A5B7",
"& 	c #DFDFE5",
"* 	c #FFFFFF",
"= 	c #D3D3DC",
"- 	c #CFCFD9",
"; 	c #B5B5C4",
"> 	c #B8B8C6",
", 	c #B0B0C0",
"' 	c #FCFCFD",
") 	c #C9C9D4",
"! 	c #A9A9BA",
"~ 	c #E1E1E7",
"{ 	c #CECED8",
"] 	c #A8A8BA",
"^ 	c #F6F6F8",
"/ 	c #C2C2CE",
"( 	c #9C9CB0",
"_ 	c #DDDDE4",
": 	c #9F9FB3",
"< 	c #F0F0F3",
"[ 	c #BABAC8",
"} 	c #9090A7",
"| 	c #D7D7DF",
"1 	c #9797AD",
"2 	c #E9E9EE",
"3 	c #B3B3C2",
"4 	c #84849D",
"5 	c #CDCDD7",
"6 	c #F9F9FA",
"7 	c #FDFDFD",
"8 	c #EDEDF0",
"9 	c #9494A6",
"0 	c #8F8FA6",
"a 	c #E3E3E9",
"b 	c #ABABBC",
"c 	c #787893",
"d 	c #C3C3CF",
"e 	c #F4F4F6",
"f 	c #E5E5EB",
"g 	c #9B9BAF",
"h 	c #8787A0",
"i 	c #A3A3B6",
"j 	c #696987",
"k 	c #B9B9C7",
"l 	c #E7E7EC",
"m 	c #EBEBF0",
"n 	c #DCDCE3",
"o 	c #8F8FA5",
"p 	c #7F7F99",
"q 	c #D6D6DE",
"r 	c #5F5F7F",
"s 	c #AFAFBF",
"t 	c #DEDEE5",
"u 	c #E3E3E8",
"v 	c #D2D2DB",
"w 	c #83839C",
"x 	c #777793",
"y 	c #D0D0DA",
"z 	c #C8C8D4",
"A 	c #6D6D8B",
"B 	c #A4A4B7",
"C 	c #D5D5DE",
"D 	c #DADAE1",
"E 	c #787892",
"F 	c #72728F",
"G 	c #6B6B8A",
"H 	c #9D9DB1",
"I 	c #CCCCD7",
"J 	c #D1D1DA",
"K 	c #BFBFCC",
"L 	c #6C6C89",
"M 	c #6A6A89",
"N 	c #C4C4D0",
"O 	c #C8C8D3",
"P 	c #60607F",
"Q 	c #C48D2C",
"R 	c #DCB834",
"S 	c #E2C136",
"T 	c #E1BB35",
"U 	c #CD902C",
"V 	c #846E64",
"W 	c #8A8AA2",
"X 	c #9393A9",
"Y 	c #5B5B7C",
"Z 	c #BD7920",
"` 	c #E8D038",
" .	c #FFFA3F",
"..	c #FCF23E",
"+.	c #D9A52F",
"@.	c #D18D2A",
"#.	c #957E66",
"$.	c #E6E6EB",
"%.	c #757592",
"&.	c #5A5A7C",
"*.	c #FAE638",
"=.	c #FFEE39",
"-.	c #F4D335",
";.	c #EEC333",
">.	c #F0C934",
",.	c #FDE938",
"'.	c #FCE838",
").	c #CF8F2B",
"!.	c #EDC933",
"~.	c #B7AD56",
"{.	c #9B9BB0",
"].	c #5D5973",
"^.	c #F9DC33",
"/.	c #FCDE33",
"(.	c #DCA32D",
"_.	c #E08C15",
":.	c #D2912A",
"<.	c #FFE434",
"[.	c #F8D832",
"}.	c #D7B93F",
"|.	c #C28D3B",
"1.	c #DBAE36",
"2.	c #C68528",
"3.	c #DAAC2B",
"4.	c #FFD92E",
"5.	c #D2982B",
"6.	c #E8B82C",
"7.	c #F5CA2D",
"8.	c #D6972B",
"9.	c #F7E038",
"0.	c #E7BF33",
"a.	c #D7A02D",
"b.	c #C48428",
"c.	c #FFCD28",
"d.	c #F1BD28",
"e.	c #DBA328",
"f.	c #F4C028",
"g.	c #CF902B",
"h.	c #F5D935",
"i.	c #FFEC38",
"j.	c #F2D234",
"k.	c #EFCC33",
"l.	c #FFC222",
"m.	c #E9AD23",
"n.	c #EFB223",
"o.	c #F2B624",
"p.	c #C08128",
"q.	c #D29A2C",
"r.	c #FFE334",
"s.	c #DBA62D",
"t.	c #C58722",
"u.	c #FFB81C",
"v.	c #E6A21F",
"w.	c #C18223",
"x.	c #F1AC1F",
"y.	c #CE952B",
"z.	c #FFDB2F",
"A.	c #F2C22E",
"B.	c #EDB92E",
"C.	c #C68A2A",
"D.	c #FFAD16",
"E.	c #F8A717",
"F.	c #EFA21A",
"G.	c #CA9029",
"H.	c #FFD32B",
"I.	c #E2A72B",
"J.	c #D69623",
"K.	c #E5B12A",
"L.	c #E89315",
"M.	c #FFA110",
"N.	c #F09713",
"O.	c #EE9715",
"P.	c #C68B28",
"Q.	c #FFCB27",
"R.	c #F4BE27",
"S.	c #FAC627",
"T.	c #E88A10",
"U.	c #FF970B",
"V.	c #F9930D",
"W.	c #CD7E1A",
"X.	c #C28527",
"Y.	c #FFC323",
"Z.	c #DC9F26",
"`.	c #E99415",
" +	c #B27726",
".+	c #BE8125",
"++	c #FFBB1E",
"@+	c #FFB31A",
"#+	c #E29C1E",
"$+	c #DC971F",
"%+	c #EC9E19",
"&+	c #F9A617",
"*+	c #FFA312",
"=+	c #E38B14",
"-+	c #FF9B0D",
";+	c #EA8F12",
">+	c #E28410",
",+	c #FF9309",
"                                    . +                         ",
"                                  @ # $                         ",
"                                % & * =                         ",
"                                % * * -               ; >       ",
"                                , ' ' )             ! ~ {       ",
"                                ] ^ ^ /           ( _ * $       ",
"                                : < < [         } | * * [       ",
"                                1 2 2 3       4 5 6 7 8 9       ",
"                                0 a a b     c d < e f g         ",
"                                h _ _ i   j k l m n o           ",
"                                p q q ( r s t u v w             ",
"                                x y z A B C D ) E               ",
"                                F + G H I J K L                 ",
"                                M M 1 N O @ P                   ",
"                Q R S T U       V W X k s Y                     ",
"            Z `  . . . ...+.  @.#.< $.%.&.                      ",
"          Z *.=.-.;.>.,.=.'.).!.~.{.X ].                        ",
"        Z ^./.(._.  _.:./.<.[.<.<.}.|.1.2.                      ",
"        3.4.5._.      :.6.4.4.4.7.8.9.0.a.a.b.                  ",
"      Z c.d._.          e.c.c.f.g.h.i.j.k.i.k.a.Z               ",
"      Z l.m._.          n.l.o.p.q.r.r.r.r.r.r.r.s.Z             ",
"      t.u.v._.        w.u.x.Z   y.z.z.z.A.B.A.z.z.C.            ",
"      Z D.D._._._._._.E.F.Z     G.H.H.I.J.  J.I.H.K.Z           ",
"      Z L.M.M.N.N.N.M.O.Z       P.Q.R.J.      J.R.S.Z           ",
"        Z T.U.U.U.V.W.Z         X.Y.Z.`.        J.Y. +          ",
"          Z Z Z Z Z             .+++J.          J.++Z           ",
"                                Z @+#+          $+@+Z           ",
"                                Z %+&+`.      `.&+%+Z           ",
"                                  Z *+`.`.`.`.`.*+Z             ",
"                                  Z =+-+-+-+-+-+;+Z             ",
"                                    Z >+,+,+,+>+Z               ",
"                                      Z Z Z Z Z                 "};
