/* XPM */
static char * search_cap_up_xpm[] = {
"32 32 454 2",
"  	c Gray75 s backgroundToolBarColor",
". 	c #C4D0E5",
"+ 	c #9DAAC1",
"@ 	c #FBFFFF",
"# 	c #FFFFFF",
"$ 	c #FEFFFF",
"% 	c #F5FAFF",
"& 	c #EDF3FE",
"* 	c #E4EBF9",
"= 	c #D8E1F2",
"- 	c #C2D0E9",
"; 	c #A7B2C4",
"> 	c #FCFFFF",
", 	c #F8FDFF",
"' 	c #F2F7FF",
") 	c #EAF1FD",
"! 	c #E1E9F7",
"~ 	c #D5DFF0",
"{ 	c #BFCCE3",
"] 	c #EBF4FF",
"^ 	c #A2AEC1",
"/ 	c #EDF4FE",
"( 	c #E6EDFA",
"_ 	c #D9E2F2",
": 	c #C2CEE5",
"< 	c #F0F6FF",
"[ 	c #DCE7F9",
"} 	c #A1ADC3",
"| 	c #F8FCFF",
"1 	c #F1F7FF",
"2 	c #E9EFFC",
"3 	c #DCE5F4",
"4 	c #C4D0E6",
"5 	c #E8EEFB",
"6 	c #DBE5F9",
"7 	c #A4AFC5",
"8 	c #FAFEFF",
"9 	c #F3F9FF",
"0 	c #EBF1FD",
"a 	c #DFE7F6",
"b 	c #C6D1E5",
"c 	c #FDFFFF",
"d 	c #ECF2FD",
"e 	c #DEE9FB",
"f 	c #A4B0C4",
"g 	c #F3F3F6",
"h 	c #DFDFE7",
"i 	c #D5D4DE",
"j 	c #D8D8E2",
"k 	c #DADAE3",
"l 	c #EBEBEF",
"m 	c #F9F9FA",
"n 	c #F5F9FF",
"o 	c #E3EBF9",
"p 	c #BECBE1",
"q 	c #F3F5FB",
"r 	c #ECF2F9",
"s 	c #E4EBF7",
"t 	c #D8E1F0",
"u 	c #D0DCF1",
"v 	c #9EABC1",
"w 	c #D7D7E1",
"x 	c #ADADC0",
"y 	c #B1B1C3",
"z 	c #B9B8C9",
"A 	c #BDBDCD",
"B 	c #C1C1D0",
"C 	c #C1C0CF",
"D 	c #CACAD7",
"E 	c #ECEEF2",
"F 	c #F7FBFF",
"G 	c #E8EFFC",
"H 	c #C8D4E7",
"I 	c #98A9C5",
"J 	c #EEF1F4",
"K 	c #A7A7BB",
"L 	c #9E9DB3",
"M 	c #AAABC0",
"N 	c #B4BACF",
"O 	c #C1CADC",
"P 	c #CBD0E1",
"Q 	c #CFD1E0",
"R 	c #C5C8D7",
"S 	c #C5C5D4",
"T 	c #D1D3DF",
"U 	c #F1F6FF",
"V 	c #EBF1FE",
"W 	c #E5EDFA",
"X 	c #D7E0F1",
"Y 	c #C1CEE4",
"Z 	c #B6C4DD",
"` 	c #B4C3DC",
" .	c #AEBEDB",
"..	c #8495B1",
"+.	c #BDC7DD",
"@.	c #9595AD",
"#.	c #9896AE",
"$.	c #A0ABC5",
"%.	c #C4E2F5",
"&.	c #DAF4FB",
"*.	c #E6F8FE",
"=.	c #EFFBFE",
"-.	c #F2FBFE",
";.	c #ECFAFC",
">.	c #DBEBF7",
",.	c #C9CDDC",
"'.	c #C4C3D1",
").	c #CBCCD9",
"!.	c #ECF3FE",
"~.	c #CCD6EA",
"{.	c #BECAE2",
"].	c #BBC9E0",
"^.	c #B9C6DF",
"/.	c #B5C5E0",
"(.	c #8C8EAA",
"_.	c #8D8CA7",
":.	c #91A3C3",
"<.	c #BDE7FD",
"[.	c #D4F6FF",
"}.	c #E0FAFF",
"|.	c #E6FCFF",
"1.	c #ECFDFF",
"2.	c #EEFDFF",
"3.	c #E4FBFF",
"4.	c #D7EFFB",
"5.	c #C8D0DF",
"6.	c #C6C5D3",
"7.	c #D4D7E4",
"8.	c #E7EEFB",
"9.	c #D5DFEF",
"0.	c #C7D3E8",
"a.	c #C5D1E6",
"b.	c #C2CFE5",
"c.	c #C1CDE4",
"d.	c #BDCBE5",
"e.	c #82819C",
"f.	c #8390B4",
"g.	c #A8D5FD",
"h.	c #C5ECFF",
"i.	c #D2F3FF",
"j.	c #DAF7FF",
"k.	c #DFF9FF",
"l.	c #E4F9FF",
"m.	c #E2F9FF",
"n.	c #DEF9FF",
"o.	c #D7F7FF",
"p.	c #CCEAFB",
"q.	c #C3C8D9",
"r.	c #C4C5D2",
"s.	c #D5DBEB",
"t.	c #D0DAED",
"u.	c #CCD7EA",
"v.	c #C9D4E9",
"w.	c #C7D2E7",
"x.	c #C6D2E6",
"y.	c #C3D0E8",
"z.	c #6B6B8C",
"A.	c #80809E",
"B.	c #8EB5E2",
"C.	c #B1DDFF",
"D.	c #C0E6FF",
"E.	c #CAEDFF",
"F.	c #D7F6FF",
"G.	c #DCF7FF",
"H.	c #DBF7FF",
"I.	c #D0F2FF",
"J.	c #C2E7FE",
"K.	c #B9D0ED",
"L.	c #C4C1CF",
"M.	c #C4C9DB",
"N.	c #D3DDEE",
"O.	c #D0DBED",
"P.	c #CED9EC",
"Q.	c #CBD7EA",
"R.	c #C8D5EC",
"S.	c #737391",
"T.	c #6A76A4",
"U.	c #87BDFA",
"V.	c #B0DBFF",
"W.	c #B9E0FF",
"X.	c #C1E6FF",
"Y.	c #C8ECFF",
"Z.	c #CEF1FF",
"`.	c #D3F4FF",
" +	c #D5F5FF",
".+	c #CCF0FF",
"++	c #C3E9FF",
"@+	c #B6E1FE",
"#+	c #AFD0F3",
"$+	c #BAC0D5",
"%+	c #C3C4D4",
"&+	c #D7DFF0",
"*+	c #D2DCEF",
"=+	c #CEDAF0",
"-+	c #666486",
";+	c #74728F",
">+	c #526CAC",
",+	c #77ABF7",
"'+	c #99C6FE",
")+	c #ABD5FF",
"!+	c #B8DFFF",
"~+	c #BFE7FF",
"{+	c #C4EAFF",
"]+	c #C5E9FF",
"^+	c #C4E7FF",
"/+	c #C2E6FF",
"(+	c #BFE6FF",
"_+	c #B7E0FE",
":+	c #ADD9FD",
"<+	c #A3CAF6",
"[+	c #AFBFDF",
"}+	c #C7C7D3",
"|+	c #D9E1F0",
"1+	c #D9E2F3",
"2+	c #D7E1F2",
"3+	c #D4DEF0",
"4+	c #D4DDEF",
"5+	c #D2DEF2",
"6+	c #6D6B8A",
"7+	c #4B69AD",
"8+	c #84B2F6",
"9+	c #9CC2FD",
"0+	c #A6CBFE",
"a+	c #ADD2FE",
"b+	c #B4D7FF",
"c+	c #B9DCFF",
"d+	c #BDDDFF",
"e+	c #BBDCFF",
"f+	c #B2D6FF",
"g+	c #AAD0FE",
"h+	c #A7D1FE",
"i+	c #A2D0FE",
"j+	c #9BC5F8",
"k+	c #ABBCE0",
"l+	c #C5C2D1",
"m+	c #DBE3F2",
"n+	c #DDE5F4",
"o+	c #DBE4F3",
"p+	c #D8E1F1",
"q+	c #D5E0F4",
"r+	c #696788",
"s+	c #5167A2",
"t+	c #89B5F7",
"u+	c #A6CAFE",
"v+	c #B0D1FE",
"w+	c #BBD9FF",
"x+	c #C2DFFF",
"y+	c #C8E3FF",
"z+	c #C9E5FF",
"A+	c #BDDCFF",
"B+	c #B6D6FF",
"C+	c #ADD0FE",
"D+	c #9EC9FE",
"E+	c #99C0F5",
"F+	c #AEB9D6",
"G+	c #C1BFCF",
"H+	c #DEE5F5",
"I+	c #DEE6F5",
"J+	c #DDE6F4",
"K+	c #DAE4F3",
"L+	c #D9E3F6",
"M+	c #5F5E81",
"N+	c #5E658F",
"O+	c #84B2F5",
"P+	c #B1D3FF",
"Q+	c #BBDAFF",
"R+	c #C7E3FF",
"S+	c #D0EAFF",
"T+	c #D7EFFF",
"U+	c #D6EFFF",
"V+	c #D4EEFF",
"W+	c #CCE9FF",
"X+	c #C4E1FF",
"Y+	c #B9D9FF",
"Z+	c #ACD0FE",
"`+	c #A5C4F4",
" @	c #B5B7CA",
".@	c #BABBCD",
"+@	c #E4EAF8",
"@@	c #E2EAF8",
"#@	c #DFE7F7",
"$@	c #DBE5F7",
"%@	c #545477",
"&@	c #626185",
"*@	c #7593CB",
"=@	c #B8D8FF",
"-@	c #C5E2FF",
";@	c #D1EBFF",
">@	c #DDF3FF",
",@	c #E6FBFF",
"'@	c #E3F9FF",
")@	c #DCF3FF",
"!@	c #D1ECFF",
"~@	c #C4E2FF",
"{@	c #B5D6FD",
"]@	c #AEBEDD",
"^@	c #C5C9DD",
"/@	c #E5ECF9",
"(@	c #E0E7F6",
"_@	c #DCE6F8",
":@	c #5F5E83",
"<@	c #61678E",
"[@	c #A2C2ED",
"}@	c #CEE9FF",
"|@	c #DBF3FF",
"1@	c #E7FBFF",
"2@	c #EDFEFF",
"3@	c #F0FEFF",
"4@	c #E7FAFF",
"5@	c #DCF5FF",
"6@	c #CDE9FF",
"7@	c #B8CFEE",
"8@	c #A9AAC0",
"9@	c #ABADC3",
"0@	c #DADFEE",
"a@	c #E6EDFB",
"b@	c #E4ECF9",
"c@	c #E2E9F7",
"d@	c #E0E8F7",
"e@	c #E0E8F6",
"f@	c #DEE8FA",
"g@	c #8287A6",
"h@	c #5D5B7F",
"i@	c #6F799F",
"j@	c #B8D1EE",
"k@	c #DFF5FE",
"l@	c #F0FFFF",
"m@	c #F6FEFF",
"n@	c #FCFEFF",
"o@	c #F9FDFF",
"p@	c #F0FCFF",
"q@	c #DEF4FD",
"r@	c #C4D6ED",
"s@	c #ACB0C7",
"t@	c #A6A5BB",
"u@	c #A6AECF",
"v@	c #E2DFDF",
"w@	c #DFE9FA",
"x@	c #8586A0",
"y@	c #605E80",
"z@	c #6F7294",
"A@	c #A2AFC6",
"B@	c #D1DEE6",
"C@	c #E8F0F4",
"D@	c #F1F4F8",
"E@	c #EBEFF4",
"F@	c #DCE8F0",
"G@	c #B5BDD0",
"H@	c #9A9AB3",
"I@	c #9594AD",
"J@	c #A09FB6",
"K@	c #A0A9CE",
"L@	c #CCBDB1",
"M@	c #E5B878",
"N@	c #E6DBD0",
"O@	c #E3EBF8",
"P@	c #E1E9F8",
"Q@	c #A9A9BC",
"R@	c #6A698A",
"S@	c #656585",
"T@	c #757896",
"U@	c #9397AF",
"V@	c #A2A6BC",
"W@	c #9CA0B7",
"X@	c #8E90AA",
"Y@	c #8E8FA9",
"Z@	c #9293AB",
"`@	c #8788A5",
" #	c #8890B7",
".#	c #918C9F",
"+#	c #B08350",
"@#	c #ECAD37",
"##	c #E9A73D",
"$#	c #E4E0DC",
"%#	c #E0E9FB",
"&#	c #E2E2E9",
"*#	c #A2A2B6",
"=#	c #8788A3",
"-#	c #7F7E9B",
";#	c #81829E",
">#	c #8888A4",
",#	c #9899B1",
"'#	c #B8BBCD",
")#	c #E5EBF5",
"!#	c #AC9FA0",
"~#	c #8E6035",
"{#	c #EBB85D",
"]#	c #FFFCB1",
"^#	c #F9D25E",
"/#	c #E6A134",
"(#	c #E1DDD8",
"_#	c #EEF2F6",
":#	c #ECF1F8",
"<#	c #F3F8FF",
"[#	c #B89675",
"}#	c #BB6F08",
"|#	c #FFBC39",
"1#	c #FFE99C",
"2#	c #FFFFB9",
"3#	c #F9D05C",
"4#	c #E5A238",
"5#	c #E2DFDB",
"6#	c #F7FCFF",
"7#	c #F4F9FF",
"8#	c #DBD4D2",
"9#	c #A97030",
"0#	c #DD8502",
"a#	c #FFB935",
"b#	c #FFE697",
"c#	c #F9CF5C",
"d#	c #E6A135",
"e#	c #E0DDDC",
"f#	c #F9FEFF",
"g#	c #F2F8FF",
"h#	c #DFDDE2",
"i#	c #A46B2E",
"j#	c #DC8402",
"k#	c #FFBB3A",
"l#	c #FFFEB8",
"m#	c #E6A339",
"n#	c #90949D",
"o#	c #DDDCE0",
"p#	c #A46B31",
"q#	c #DC8502",
"r#	c #FFBA38",
"s#	c #FFE796",
"t#	c #FFFEB9",
"u#	c #D9982F",
"v#	c #F4FDFF",
"w#	c #E9F0FC",
"x#	c #DAD8DD",
"y#	c #A46A2C",
"z#	c #DD8501",
"A#	c #FFBB3B",
"B#	c #FFE897",
"C#	c #FFFFB6",
"D#	c #F4C44E",
"E#	c #DF921A",
"F#	c #848C9D",
"G#	c #945D24",
"H#	c #DD8601",
"I#	c #FFBD3B",
"J#	c #F6CC72",
"K#	c #D6A45B",
"L#	c #C69C6C",
"M#	c #955108",
"N#	c #D07D02",
"O#	c #B4792D",
"P#	c #A38C81",
"Q#	c #9595AE",
"R#	c #975309",
"S#	c #866045",
"T#	c #777694",
"U#	c #66698B",
"              . . . . . . . . . . . . . . . +                   ",
"              . @ # # # # # # # # $ % & * = - ;                 ",
"              . > # # # # # # # # , ' ) ! ~ { ] ^               ",
"              . > # # # # # # # # @ % / ( _ : < [ }             ",
"              . > # # # # # # # # $ | 1 2 3 4 # 5 6 7           ",
"              . > # # # # # # # # # 8 9 0 a b # c d e f         ",
"              . > # # g h i j k l m > n & o p q r s t u v       ",
"              . > # w x y z A B C D E F < G H I I I I I I I     ",
"              . J K L M N O P Q R S B T U V W ! X Y Z `  ...    ",
"              +.@.#.$.%.&.*.=.-.;.>.,.'.).!.W a ~.{.].^./...    ",
"              (._.:.<.[.}.|.1.2.1.3.4.5.6.7.8.9.0.a.b.c.d...    ",
"              e.f.g.h.i.j.k.l.l.m.n.o.p.q.r.s.t.u.v.w.x.y...    ",
"            z.A.B.C.D.E.i.F.G.G.H.F.I.J.K.L.M.N.O.P.u.Q.R...    ",
"            S.T.U.V.W.X.Y.Z.`. +`..+++@+#+$+%+&+~ *+O.O.=+..    ",
"          -+;+>+,+'+)+!+~+{+]+^+/+(+_+:+<+[+}+|+1+2+3+4+5+..    ",
"            6+7+8+9+0+a+b+c+d+e+f+g+h+i+j+k+l+m+n+o+= p+q+..    ",
"            r+s+t+u+v+w+x+y+z+x+A+B+C+D+E+F+G+H+I+J+3 K+L+..    ",
"            M+N+O+P+Q+R+S+T+U+V+W+X+Y+Z+`+ @.@+@@@#@I+J+$@..    ",
"            %@&@*@=@-@;@>@m.,@'@)@!@~@{@]@y ^@/@o @@(@a _@..    ",
"              :@<@[@}@|@1@2@3@2.4@5@6@7@8@9@0@a@b@c@d@e@f@..    ",
"              g@h@i@j@k@l@m@n@o@p@q@r@s@t@u@v@( b@o d@#@w@..    ",
"              . x@y@z@A@B@C@D@E@F@G@H@I@J@K@L@M@N@O@@@P@w@..    ",
"              . > Q@R@S@T@U@V@W@X@Y@Z@`@ #.#+#@###$#! @@%#..    ",
"              . > # &#*#=#-#;#>#,#'#)#< !#~#{#]#^#/#(#@@%#..    ",
"              . > # # $ 8 _#D@:#% <#1 < [#}#|#1#2#3#4#5#w@..    ",
"              . > # # > 8 , 6#% 7#' 1 < 8#9#0#a#b#2#c#d#e#..    ",
"              . > # # f#f#, 6#7#7#g#1 < & h#i#j#k#b#l#c#m#n#    ",
"              . > # # f#f#, 6#7#7#g#1 < & ) o#p#q#r#s#t#3#u#    ",
"              . v## # f#f#, 6#7#7#g#1 < & ) w#x#y#z#A#B#C#D#E#  ",
"              . ................................F#G#H#I#J#K#L#  ",
"                                                    M#N#O#P#Q#  ",
"                                                      R#S#T#U#  "};
